<svg xmlns="http://www.w3.org/2000/svg" xmlns:xlink="http://www.w3.org/1999/xlink" width="454" zoomAndPan="magnify" viewBox="0 0 340.5 198.749996" height="265" preserveAspectRatio="xMidYMid meet" version="1.0"><defs><g/><clipPath id="ed439128f0"><path d="M 15 7.136719 L 325 7.136719 L 325 190.328125 L 15 190.328125 Z M 15 7.136719 " clip-rule="nonzero"/></clipPath><clipPath id="6372409864"><path d="M 23.351562 7.847656 L 316.308594 7.847656 C 318.492188 7.847656 320.589844 8.714844 322.132812 10.261719 C 323.679688 11.804688 324.546875 13.902344 324.546875 16.085938 L 324.546875 182.089844 C 324.546875 184.273438 323.679688 186.371094 322.132812 187.914062 C 320.589844 189.460938 318.492188 190.328125 316.308594 190.328125 L 23.351562 190.328125 C 21.164062 190.328125 19.070312 189.460938 17.523438 187.914062 C 15.980469 186.371094 15.113281 184.273438 15.113281 182.089844 L 15.113281 16.085938 C 15.113281 13.902344 15.980469 11.804688 17.523438 10.261719 C 19.070312 8.714844 21.164062 7.847656 23.351562 7.847656 Z M 23.351562 7.847656 " clip-rule="nonzero"/></clipPath><clipPath id="f09d1b0483"><path d="M 245.757812 116.9375 L 284.964844 116.9375 L 284.964844 156.140625 L 245.757812 156.140625 Z M 245.757812 116.9375 " clip-rule="nonzero"/></clipPath><clipPath id="d9cd86100c"><path d="M 265.359375 116.9375 C 254.535156 116.9375 245.757812 125.710938 245.757812 136.539062 C 245.757812 147.367188 254.535156 156.140625 265.359375 156.140625 C 276.1875 156.140625 284.964844 147.367188 284.964844 136.539062 C 284.964844 125.710938 276.1875 116.9375 265.359375 116.9375 Z M 265.359375 116.9375 " clip-rule="nonzero"/></clipPath><clipPath id="56ee3504cc"><path d="M 267.132812 116.9375 L 306.335938 116.9375 L 306.335938 156.140625 L 267.132812 156.140625 Z M 267.132812 116.9375 " clip-rule="nonzero"/></clipPath><clipPath id="033a582721"><path d="M 286.734375 116.9375 C 275.90625 116.9375 267.132812 125.710938 267.132812 136.539062 C 267.132812 147.367188 275.90625 156.140625 286.734375 156.140625 C 297.558594 156.140625 306.335938 147.367188 306.335938 136.539062 C 306.335938 125.710938 297.558594 116.9375 286.734375 116.9375 Z M 286.734375 116.9375 " clip-rule="nonzero"/></clipPath></defs><g clip-path="url(#ed439128f0)"><g clip-path="url(#6372409864)"><path fill="#6034a6" d="M 15.113281 7.847656 L 324.46875 7.847656 L 324.46875 190.328125 L 15.113281 190.328125 Z M 15.113281 7.847656 " fill-opacity="1" fill-rule="nonzero"/></g></g><g clip-path="url(#f09d1b0483)"><g clip-path="url(#d9cd86100c)"><path fill="#ff3131" d="M 245.757812 116.9375 L 284.964844 116.9375 L 284.964844 156.140625 L 245.757812 156.140625 Z M 245.757812 116.9375 " fill-opacity="1" fill-rule="nonzero"/></g></g><g fill="#ffffff" fill-opacity="1"><g transform="translate(38.173575, 87.246399)"><g><path d="M 3.03125 -9.171875 L 3.03125 0 L 2.359375 0 L 2.359375 -8.5625 L 0.125 -8.5625 L 0.125 -9.171875 Z M 3.03125 -9.171875 "/></g></g></g><g fill="#ffffff" fill-opacity="1"><g transform="translate(42.794841, 87.246399)"><g><path d="M 8.359375 -2.546875 L 6.4375 -2.546875 L 6.4375 0 L 5.78125 0 L 5.78125 -2.546875 L 0.5625 -2.546875 L 0.5625 -3.03125 L 5.53125 -9.171875 L 6.28125 -9.171875 L 1.40625 -3.125 L 5.796875 -3.125 L 5.796875 -5.375 L 6.4375 -5.375 L 6.4375 -3.125 L 8.359375 -3.125 Z M 8.359375 -2.546875 "/></g></g></g><g fill="#ffffff" fill-opacity="1"><g transform="translate(51.35662, 87.246399)"><g><path d="M 7.015625 -9.171875 L 7.015625 -8.6875 L 3.078125 0 L 2.34375 0 L 6.25 -8.5625 L 1.09375 -8.5625 L 1.09375 -6.8125 L 0.4375 -6.8125 L 0.4375 -9.171875 Z M 7.015625 -9.171875 "/></g></g></g><g fill="#ffffff" fill-opacity="1"><g transform="translate(58.962729, 87.246399)"><g><path d="M 5.625 -4.796875 C 6.257812 -4.628906 6.75 -4.347656 7.09375 -3.953125 C 7.4375 -3.554688 7.609375 -3.078125 7.609375 -2.515625 C 7.609375 -1.710938 7.296875 -1.082031 6.671875 -0.625 C 6.054688 -0.164062 5.207031 0.0625 4.125 0.0625 C 3.050781 0.0625 2.207031 -0.164062 1.59375 -0.625 C 0.976562 -1.082031 0.671875 -1.710938 0.671875 -2.515625 C 0.671875 -3.085938 0.835938 -3.566406 1.171875 -3.953125 C 1.503906 -4.347656 1.988281 -4.628906 2.625 -4.796875 C 2.09375 -4.960938 1.6875 -5.222656 1.40625 -5.578125 C 1.132812 -5.929688 1 -6.359375 1 -6.859375 C 1 -7.597656 1.28125 -8.175781 1.84375 -8.59375 C 2.414062 -9.019531 3.175781 -9.234375 4.125 -9.234375 C 5.070312 -9.234375 5.832031 -9.019531 6.40625 -8.59375 C 6.988281 -8.164062 7.28125 -7.585938 7.28125 -6.859375 C 7.28125 -6.359375 7.132812 -5.929688 6.84375 -5.578125 C 6.5625 -5.222656 6.15625 -4.960938 5.625 -4.796875 Z M 1.65625 -6.84375 C 1.65625 -6.289062 1.867188 -5.851562 2.296875 -5.53125 C 2.734375 -5.207031 3.34375 -5.046875 4.125 -5.046875 C 4.90625 -5.046875 5.515625 -5.207031 5.953125 -5.53125 C 6.390625 -5.851562 6.609375 -6.285156 6.609375 -6.828125 C 6.609375 -7.390625 6.382812 -7.832031 5.9375 -8.15625 C 5.488281 -8.488281 4.882812 -8.65625 4.125 -8.65625 C 3.363281 -8.65625 2.757812 -8.492188 2.3125 -8.171875 C 1.875 -7.847656 1.65625 -7.40625 1.65625 -6.84375 Z M 4.125 -0.515625 C 5.007812 -0.515625 5.695312 -0.691406 6.1875 -1.046875 C 6.6875 -1.398438 6.9375 -1.890625 6.9375 -2.515625 C 6.9375 -3.128906 6.6875 -3.613281 6.1875 -3.96875 C 5.695312 -4.320312 5.007812 -4.5 4.125 -4.5 C 3.25 -4.5 2.5625 -4.320312 2.0625 -3.96875 C 1.570312 -3.613281 1.328125 -3.128906 1.328125 -2.515625 C 1.328125 -1.890625 1.570312 -1.398438 2.0625 -1.046875 C 2.550781 -0.691406 3.238281 -0.515625 4.125 -0.515625 Z M 4.125 -0.515625 "/></g></g></g><g fill="#ffffff" fill-opacity="1"><g transform="translate(67.236494, 87.246399)"><g/></g></g><g fill="#ffffff" fill-opacity="1"><g transform="translate(70.600991, 87.246399)"><g><path d="M 6.828125 -0.609375 L 6.828125 0 L 0.53125 0 L 0.53125 -0.46875 L 4.40625 -4.328125 C 4.914062 -4.828125 5.257812 -5.257812 5.4375 -5.625 C 5.613281 -5.988281 5.703125 -6.363281 5.703125 -6.75 C 5.703125 -7.332031 5.503906 -7.785156 5.109375 -8.109375 C 4.710938 -8.441406 4.140625 -8.609375 3.390625 -8.609375 C 2.816406 -8.609375 2.3125 -8.519531 1.875 -8.34375 C 1.445312 -8.175781 1.078125 -7.914062 0.765625 -7.5625 L 0.28125 -7.96875 C 0.632812 -8.375 1.078125 -8.6875 1.609375 -8.90625 C 2.148438 -9.125 2.757812 -9.234375 3.4375 -9.234375 C 4.34375 -9.234375 5.0625 -9.015625 5.59375 -8.578125 C 6.125 -8.140625 6.390625 -7.550781 6.390625 -6.8125 C 6.390625 -6.34375 6.285156 -5.890625 6.078125 -5.453125 C 5.867188 -5.023438 5.472656 -4.53125 4.890625 -3.96875 L 1.515625 -0.609375 Z M 6.828125 -0.609375 "/></g></g></g><g fill="#ffffff" fill-opacity="1"><g transform="translate(77.971448, 87.246399)"><g><path d="M 2.953125 -5.328125 C 4.296875 -5.328125 5.265625 -5.09375 5.859375 -4.625 C 6.460938 -4.15625 6.765625 -3.492188 6.765625 -2.640625 C 6.765625 -2.117188 6.644531 -1.65625 6.40625 -1.25 C 6.164062 -0.84375 5.804688 -0.519531 5.328125 -0.28125 C 4.847656 -0.0507812 4.257812 0.0625 3.5625 0.0625 C 2.894531 0.0625 2.269531 -0.046875 1.6875 -0.265625 C 1.113281 -0.492188 0.664062 -0.796875 0.34375 -1.171875 L 0.6875 -1.671875 C 0.96875 -1.335938 1.363281 -1.066406 1.875 -0.859375 C 2.382812 -0.648438 2.941406 -0.546875 3.546875 -0.546875 C 4.367188 -0.546875 5 -0.734375 5.4375 -1.109375 C 5.882812 -1.484375 6.109375 -1.988281 6.109375 -2.625 C 6.109375 -3.3125 5.851562 -3.832031 5.34375 -4.1875 C 4.84375 -4.550781 4 -4.734375 2.8125 -4.734375 L 0.953125 -4.734375 L 1.4375 -9.171875 L 6.296875 -9.171875 L 6.296875 -8.5625 L 2 -8.5625 L 1.65625 -5.328125 Z M 2.953125 -5.328125 "/></g></g></g><g fill="#ffffff" fill-opacity="1"><g transform="translate(85.276458, 87.246399)"><g><path d="M 3.03125 -9.171875 L 3.03125 0 L 2.359375 0 L 2.359375 -8.5625 L 0.125 -8.5625 L 0.125 -9.171875 Z M 3.03125 -9.171875 "/></g></g></g><g fill="#ffffff" fill-opacity="1"><g transform="translate(89.897724, 87.246399)"><g><path d="M 5.625 -4.796875 C 6.257812 -4.628906 6.75 -4.347656 7.09375 -3.953125 C 7.4375 -3.554688 7.609375 -3.078125 7.609375 -2.515625 C 7.609375 -1.710938 7.296875 -1.082031 6.671875 -0.625 C 6.054688 -0.164062 5.207031 0.0625 4.125 0.0625 C 3.050781 0.0625 2.207031 -0.164062 1.59375 -0.625 C 0.976562 -1.082031 0.671875 -1.710938 0.671875 -2.515625 C 0.671875 -3.085938 0.835938 -3.566406 1.171875 -3.953125 C 1.503906 -4.347656 1.988281 -4.628906 2.625 -4.796875 C 2.09375 -4.960938 1.6875 -5.222656 1.40625 -5.578125 C 1.132812 -5.929688 1 -6.359375 1 -6.859375 C 1 -7.597656 1.28125 -8.175781 1.84375 -8.59375 C 2.414062 -9.019531 3.175781 -9.234375 4.125 -9.234375 C 5.070312 -9.234375 5.832031 -9.019531 6.40625 -8.59375 C 6.988281 -8.164062 7.28125 -7.585938 7.28125 -6.859375 C 7.28125 -6.359375 7.132812 -5.929688 6.84375 -5.578125 C 6.5625 -5.222656 6.15625 -4.960938 5.625 -4.796875 Z M 1.65625 -6.84375 C 1.65625 -6.289062 1.867188 -5.851562 2.296875 -5.53125 C 2.734375 -5.207031 3.34375 -5.046875 4.125 -5.046875 C 4.90625 -5.046875 5.515625 -5.207031 5.953125 -5.53125 C 6.390625 -5.851562 6.609375 -6.285156 6.609375 -6.828125 C 6.609375 -7.390625 6.382812 -7.832031 5.9375 -8.15625 C 5.488281 -8.488281 4.882812 -8.65625 4.125 -8.65625 C 3.363281 -8.65625 2.757812 -8.492188 2.3125 -8.171875 C 1.875 -7.847656 1.65625 -7.40625 1.65625 -6.84375 Z M 4.125 -0.515625 C 5.007812 -0.515625 5.695312 -0.691406 6.1875 -1.046875 C 6.6875 -1.398438 6.9375 -1.890625 6.9375 -2.515625 C 6.9375 -3.128906 6.6875 -3.613281 6.1875 -3.96875 C 5.695312 -4.320312 5.007812 -4.5 4.125 -4.5 C 3.25 -4.5 2.5625 -4.320312 2.0625 -3.96875 C 1.570312 -3.613281 1.328125 -3.128906 1.328125 -2.515625 C 1.328125 -1.890625 1.570312 -1.398438 2.0625 -1.046875 C 2.550781 -0.691406 3.238281 -0.515625 4.125 -0.515625 Z M 4.125 -0.515625 "/></g></g></g><g fill="#ffffff" fill-opacity="1"><g transform="translate(98.171489, 87.246399)"><g/></g></g><g fill="#ffffff" fill-opacity="1"><g transform="translate(101.535986, 87.246399)"><g><path d="M 3.03125 -9.171875 L 3.03125 0 L 2.359375 0 L 2.359375 -8.5625 L 0.125 -8.5625 L 0.125 -9.171875 Z M 3.03125 -9.171875 "/></g></g></g><g fill="#ffffff" fill-opacity="1"><g transform="translate(106.157252, 87.246399)"><g><path d="M 2.953125 -5.328125 C 4.296875 -5.328125 5.265625 -5.09375 5.859375 -4.625 C 6.460938 -4.15625 6.765625 -3.492188 6.765625 -2.640625 C 6.765625 -2.117188 6.644531 -1.65625 6.40625 -1.25 C 6.164062 -0.84375 5.804688 -0.519531 5.328125 -0.28125 C 4.847656 -0.0507812 4.257812 0.0625 3.5625 0.0625 C 2.894531 0.0625 2.269531 -0.046875 1.6875 -0.265625 C 1.113281 -0.492188 0.664062 -0.796875 0.34375 -1.171875 L 0.6875 -1.671875 C 0.96875 -1.335938 1.363281 -1.066406 1.875 -0.859375 C 2.382812 -0.648438 2.941406 -0.546875 3.546875 -0.546875 C 4.367188 -0.546875 5 -0.734375 5.4375 -1.109375 C 5.882812 -1.484375 6.109375 -1.988281 6.109375 -2.625 C 6.109375 -3.3125 5.851562 -3.832031 5.34375 -4.1875 C 4.84375 -4.550781 4 -4.734375 2.8125 -4.734375 L 0.953125 -4.734375 L 1.4375 -9.171875 L 6.296875 -9.171875 L 6.296875 -8.5625 L 2 -8.5625 L 1.65625 -5.328125 Z M 2.953125 -5.328125 "/></g></g></g><g fill="#ffffff" fill-opacity="1"><g transform="translate(113.462262, 87.246399)"><g><path d="M 6.828125 -0.609375 L 6.828125 0 L 0.53125 0 L 0.53125 -0.46875 L 4.40625 -4.328125 C 4.914062 -4.828125 5.257812 -5.257812 5.4375 -5.625 C 5.613281 -5.988281 5.703125 -6.363281 5.703125 -6.75 C 5.703125 -7.332031 5.503906 -7.785156 5.109375 -8.109375 C 4.710938 -8.441406 4.140625 -8.609375 3.390625 -8.609375 C 2.816406 -8.609375 2.3125 -8.519531 1.875 -8.34375 C 1.445312 -8.175781 1.078125 -7.914062 0.765625 -7.5625 L 0.28125 -7.96875 C 0.632812 -8.375 1.078125 -8.6875 1.609375 -8.90625 C 2.148438 -9.125 2.757812 -9.234375 3.4375 -9.234375 C 4.34375 -9.234375 5.0625 -9.015625 5.59375 -8.578125 C 6.125 -8.140625 6.390625 -7.550781 6.390625 -6.8125 C 6.390625 -6.34375 6.285156 -5.890625 6.078125 -5.453125 C 5.867188 -5.023438 5.472656 -4.53125 4.890625 -3.96875 L 1.515625 -0.609375 Z M 6.828125 -0.609375 "/></g></g></g><g fill="#ffffff" fill-opacity="1"><g transform="translate(120.832718, 87.246399)"><g><path d="M 4.390625 -5.421875 C 4.992188 -5.421875 5.523438 -5.304688 5.984375 -5.078125 C 6.453125 -4.859375 6.8125 -4.539062 7.0625 -4.125 C 7.320312 -3.71875 7.453125 -3.242188 7.453125 -2.703125 C 7.453125 -2.148438 7.320312 -1.660156 7.0625 -1.234375 C 6.800781 -0.816406 6.4375 -0.492188 5.96875 -0.265625 C 5.507812 -0.046875 4.988281 0.0625 4.40625 0.0625 C 3.21875 0.0625 2.304688 -0.335938 1.671875 -1.140625 C 1.035156 -1.953125 0.71875 -3.082031 0.71875 -4.53125 C 0.71875 -5.539062 0.882812 -6.394531 1.21875 -7.09375 C 1.5625 -7.800781 2.035156 -8.332031 2.640625 -8.6875 C 3.253906 -9.050781 3.972656 -9.234375 4.796875 -9.234375 C 5.660156 -9.234375 6.351562 -9.078125 6.875 -8.765625 L 6.59375 -8.21875 C 6.15625 -8.5 5.554688 -8.640625 4.796875 -8.640625 C 3.734375 -8.640625 2.898438 -8.296875 2.296875 -7.609375 C 1.691406 -6.929688 1.390625 -5.941406 1.390625 -4.640625 C 1.390625 -4.234375 1.414062 -3.863281 1.46875 -3.53125 C 1.644531 -4.125 2 -4.585938 2.53125 -4.921875 C 3.0625 -5.253906 3.679688 -5.421875 4.390625 -5.421875 Z M 4.375 -0.515625 C 5.09375 -0.515625 5.671875 -0.710938 6.109375 -1.109375 C 6.554688 -1.503906 6.78125 -2.03125 6.78125 -2.6875 C 6.78125 -3.34375 6.554688 -3.863281 6.109375 -4.25 C 5.671875 -4.644531 5.066406 -4.84375 4.296875 -4.84375 C 3.804688 -4.84375 3.363281 -4.742188 2.96875 -4.546875 C 2.582031 -4.359375 2.28125 -4.097656 2.0625 -3.765625 C 1.851562 -3.429688 1.75 -3.0625 1.75 -2.65625 C 1.75 -2.289062 1.851562 -1.941406 2.0625 -1.609375 C 2.269531 -1.273438 2.566406 -1.007812 2.953125 -0.8125 C 3.347656 -0.613281 3.820312 -0.515625 4.375 -0.515625 Z M 4.375 -0.515625 "/></g></g></g><g fill="#ffffff" fill-opacity="1"><g transform="translate(128.713745, 87.246399)"><g/></g></g><g fill="#ffffff" fill-opacity="1"><g transform="translate(132.078242, 87.246399)"><g><path d="M 6.828125 -0.609375 L 6.828125 0 L 0.53125 0 L 0.53125 -0.46875 L 4.40625 -4.328125 C 4.914062 -4.828125 5.257812 -5.257812 5.4375 -5.625 C 5.613281 -5.988281 5.703125 -6.363281 5.703125 -6.75 C 5.703125 -7.332031 5.503906 -7.785156 5.109375 -8.109375 C 4.710938 -8.441406 4.140625 -8.609375 3.390625 -8.609375 C 2.816406 -8.609375 2.3125 -8.519531 1.875 -8.34375 C 1.445312 -8.175781 1.078125 -7.914062 0.765625 -7.5625 L 0.28125 -7.96875 C 0.632812 -8.375 1.078125 -8.6875 1.609375 -8.90625 C 2.148438 -9.125 2.757812 -9.234375 3.4375 -9.234375 C 4.34375 -9.234375 5.0625 -9.015625 5.59375 -8.578125 C 6.125 -8.140625 6.390625 -7.550781 6.390625 -6.8125 C 6.390625 -6.34375 6.285156 -5.890625 6.078125 -5.453125 C 5.867188 -5.023438 5.472656 -4.53125 4.890625 -3.96875 L 1.515625 -0.609375 Z M 6.828125 -0.609375 "/></g></g></g><g fill="#ffffff" fill-opacity="1"><g transform="translate(139.448699, 87.246399)"><g><path d="M 4.390625 -5.421875 C 4.992188 -5.421875 5.523438 -5.304688 5.984375 -5.078125 C 6.453125 -4.859375 6.8125 -4.539062 7.0625 -4.125 C 7.320312 -3.71875 7.453125 -3.242188 7.453125 -2.703125 C 7.453125 -2.148438 7.320312 -1.660156 7.0625 -1.234375 C 6.800781 -0.816406 6.4375 -0.492188 5.96875 -0.265625 C 5.507812 -0.046875 4.988281 0.0625 4.40625 0.0625 C 3.21875 0.0625 2.304688 -0.335938 1.671875 -1.140625 C 1.035156 -1.953125 0.71875 -3.082031 0.71875 -4.53125 C 0.71875 -5.539062 0.882812 -6.394531 1.21875 -7.09375 C 1.5625 -7.800781 2.035156 -8.332031 2.640625 -8.6875 C 3.253906 -9.050781 3.972656 -9.234375 4.796875 -9.234375 C 5.660156 -9.234375 6.351562 -9.078125 6.875 -8.765625 L 6.59375 -8.21875 C 6.15625 -8.5 5.554688 -8.640625 4.796875 -8.640625 C 3.734375 -8.640625 2.898438 -8.296875 2.296875 -7.609375 C 1.691406 -6.929688 1.390625 -5.941406 1.390625 -4.640625 C 1.390625 -4.234375 1.414062 -3.863281 1.46875 -3.53125 C 1.644531 -4.125 2 -4.585938 2.53125 -4.921875 C 3.0625 -5.253906 3.679688 -5.421875 4.390625 -5.421875 Z M 4.375 -0.515625 C 5.09375 -0.515625 5.671875 -0.710938 6.109375 -1.109375 C 6.554688 -1.503906 6.78125 -2.03125 6.78125 -2.6875 C 6.78125 -3.34375 6.554688 -3.863281 6.109375 -4.25 C 5.671875 -4.644531 5.066406 -4.84375 4.296875 -4.84375 C 3.804688 -4.84375 3.363281 -4.742188 2.96875 -4.546875 C 2.582031 -4.359375 2.28125 -4.097656 2.0625 -3.765625 C 1.851562 -3.429688 1.75 -3.0625 1.75 -2.65625 C 1.75 -2.289062 1.851562 -1.941406 2.0625 -1.609375 C 2.269531 -1.273438 2.566406 -1.007812 2.953125 -0.8125 C 3.347656 -0.613281 3.820312 -0.515625 4.375 -0.515625 Z M 4.375 -0.515625 "/></g></g></g><g fill="#ffffff" fill-opacity="1"><g transform="translate(147.329725, 87.246399)"><g><path d="M 6.828125 -0.609375 L 6.828125 0 L 0.53125 0 L 0.53125 -0.46875 L 4.40625 -4.328125 C 4.914062 -4.828125 5.257812 -5.257812 5.4375 -5.625 C 5.613281 -5.988281 5.703125 -6.363281 5.703125 -6.75 C 5.703125 -7.332031 5.503906 -7.785156 5.109375 -8.109375 C 4.710938 -8.441406 4.140625 -8.609375 3.390625 -8.609375 C 2.816406 -8.609375 2.3125 -8.519531 1.875 -8.34375 C 1.445312 -8.175781 1.078125 -7.914062 0.765625 -7.5625 L 0.28125 -7.96875 C 0.632812 -8.375 1.078125 -8.6875 1.609375 -8.90625 C 2.148438 -9.125 2.757812 -9.234375 3.4375 -9.234375 C 4.34375 -9.234375 5.0625 -9.015625 5.59375 -8.578125 C 6.125 -8.140625 6.390625 -7.550781 6.390625 -6.8125 C 6.390625 -6.34375 6.285156 -5.890625 6.078125 -5.453125 C 5.867188 -5.023438 5.472656 -4.53125 4.890625 -3.96875 L 1.515625 -0.609375 Z M 6.828125 -0.609375 "/></g></g></g><g fill="#ffffff" fill-opacity="1"><g transform="translate(154.700182, 87.246399)"><g><path d="M 4.3125 0.0625 C 3.613281 0.0625 2.988281 -0.125 2.4375 -0.5 C 1.894531 -0.882812 1.472656 -1.425781 1.171875 -2.125 C 0.867188 -2.820312 0.71875 -3.640625 0.71875 -4.578125 C 0.71875 -5.523438 0.867188 -6.347656 1.171875 -7.046875 C 1.472656 -7.742188 1.894531 -8.28125 2.4375 -8.65625 C 2.988281 -9.039062 3.613281 -9.234375 4.3125 -9.234375 C 5.007812 -9.234375 5.628906 -9.039062 6.171875 -8.65625 C 6.710938 -8.28125 7.132812 -7.742188 7.4375 -7.046875 C 7.738281 -6.347656 7.890625 -5.523438 7.890625 -4.578125 C 7.890625 -3.640625 7.738281 -2.820312 7.4375 -2.125 C 7.132812 -1.425781 6.710938 -0.882812 6.171875 -0.5 C 5.628906 -0.125 5.007812 0.0625 4.3125 0.0625 Z M 4.3125 -0.546875 C 4.882812 -0.546875 5.390625 -0.703125 5.828125 -1.015625 C 6.273438 -1.335938 6.617188 -1.800781 6.859375 -2.40625 C 7.109375 -3.019531 7.234375 -3.742188 7.234375 -4.578125 C 7.234375 -5.421875 7.109375 -6.144531 6.859375 -6.75 C 6.617188 -7.351562 6.273438 -7.8125 5.828125 -8.125 C 5.390625 -8.445312 4.882812 -8.609375 4.3125 -8.609375 C 3.726562 -8.609375 3.21875 -8.445312 2.78125 -8.125 C 2.34375 -7.8125 2 -7.351562 1.75 -6.75 C 1.507812 -6.144531 1.390625 -5.421875 1.390625 -4.578125 C 1.390625 -3.742188 1.507812 -3.019531 1.75 -2.40625 C 2 -1.800781 2.34375 -1.335938 2.78125 -1.015625 C 3.21875 -0.703125 3.726562 -0.546875 4.3125 -0.546875 Z M 4.3125 -0.546875 "/></g></g></g><g fill="#ffffff" fill-opacity="1"><g transform="translate(268.894317, 33.871668)"><g><path d="M 3.03125 -9.171875 L 3.03125 0 L 2.359375 0 L 2.359375 -8.5625 L 0.125 -8.5625 L 0.125 -9.171875 Z M 3.03125 -9.171875 "/></g></g></g><g fill="#ffffff" fill-opacity="1"><g transform="translate(273.515583, 33.871668)"><g><path d="M 6.828125 -0.609375 L 6.828125 0 L 0.53125 0 L 0.53125 -0.46875 L 4.40625 -4.328125 C 4.914062 -4.828125 5.257812 -5.257812 5.4375 -5.625 C 5.613281 -5.988281 5.703125 -6.363281 5.703125 -6.75 C 5.703125 -7.332031 5.503906 -7.785156 5.109375 -8.109375 C 4.710938 -8.441406 4.140625 -8.609375 3.390625 -8.609375 C 2.816406 -8.609375 2.3125 -8.519531 1.875 -8.34375 C 1.445312 -8.175781 1.078125 -7.914062 0.765625 -7.5625 L 0.28125 -7.96875 C 0.632812 -8.375 1.078125 -8.6875 1.609375 -8.90625 C 2.148438 -9.125 2.757812 -9.234375 3.4375 -9.234375 C 4.34375 -9.234375 5.0625 -9.015625 5.59375 -8.578125 C 6.125 -8.140625 6.390625 -7.550781 6.390625 -6.8125 C 6.390625 -6.34375 6.285156 -5.890625 6.078125 -5.453125 C 5.867188 -5.023438 5.472656 -4.53125 4.890625 -3.96875 L 1.515625 -0.609375 Z M 6.828125 -0.609375 "/></g></g></g><g fill="#ffffff" fill-opacity="1"><g transform="translate(280.88604, 33.871668)"><g><path d="M 4.015625 -11.03125 L 4.625 -11.03125 L 0.296875 1.3125 L -0.296875 1.3125 Z M 4.015625 -11.03125 "/></g></g></g><g fill="#ffffff" fill-opacity="1"><g transform="translate(285.07529, 33.871668)"><g><path d="M 6.828125 -0.609375 L 6.828125 0 L 0.53125 0 L 0.53125 -0.46875 L 4.40625 -4.328125 C 4.914062 -4.828125 5.257812 -5.257812 5.4375 -5.625 C 5.613281 -5.988281 5.703125 -6.363281 5.703125 -6.75 C 5.703125 -7.332031 5.503906 -7.785156 5.109375 -8.109375 C 4.710938 -8.441406 4.140625 -8.609375 3.390625 -8.609375 C 2.816406 -8.609375 2.3125 -8.519531 1.875 -8.34375 C 1.445312 -8.175781 1.078125 -7.914062 0.765625 -7.5625 L 0.28125 -7.96875 C 0.632812 -8.375 1.078125 -8.6875 1.609375 -8.90625 C 2.148438 -9.125 2.757812 -9.234375 3.4375 -9.234375 C 4.34375 -9.234375 5.0625 -9.015625 5.59375 -8.578125 C 6.125 -8.140625 6.390625 -7.550781 6.390625 -6.8125 C 6.390625 -6.34375 6.285156 -5.890625 6.078125 -5.453125 C 5.867188 -5.023438 5.472656 -4.53125 4.890625 -3.96875 L 1.515625 -0.609375 Z M 6.828125 -0.609375 "/></g></g></g><g fill="#ffffff" fill-opacity="1"><g transform="translate(292.445746, 33.871668)"><g><path d="M 8.359375 -2.546875 L 6.4375 -2.546875 L 6.4375 0 L 5.78125 0 L 5.78125 -2.546875 L 0.5625 -2.546875 L 0.5625 -3.03125 L 5.53125 -9.171875 L 6.28125 -9.171875 L 1.40625 -3.125 L 5.796875 -3.125 L 5.796875 -5.375 L 6.4375 -5.375 L 6.4375 -3.125 L 8.359375 -3.125 Z M 8.359375 -2.546875 "/></g></g></g><g fill="#ffffff" fill-opacity="1"><g transform="translate(38.672284, 157.104096)"><g><path d="M 6.90625 0 L 6.21875 -2.21875 L 2.8125 -2.21875 L 2.140625 0 L 0 0 L 3.296875 -9.390625 L 5.71875 -9.390625 L 9.03125 0 Z M 5.75 -3.890625 C 5.125 -5.898438 4.769531 -7.035156 4.6875 -7.296875 C 4.613281 -7.566406 4.554688 -7.78125 4.515625 -7.9375 C 4.378906 -7.382812 3.976562 -6.035156 3.3125 -3.890625 Z M 5.75 -3.890625 "/></g></g><g transform="translate(47.70457, 157.104096)"><g><path d="M 2.96875 0 L 1.015625 0 L 1.015625 -9.953125 L 2.96875 -9.953125 Z M 2.96875 0 "/></g></g><g transform="translate(51.699743, 157.104096)"><g><path d="M 3.984375 -5.890625 C 3.566406 -5.890625 3.238281 -5.757812 3 -5.5 C 2.769531 -5.238281 2.640625 -4.867188 2.609375 -4.390625 L 5.34375 -4.390625 C 5.332031 -4.867188 5.207031 -5.238281 4.96875 -5.5 C 4.726562 -5.757812 4.398438 -5.890625 3.984375 -5.890625 Z M 4.265625 0.125 C 3.109375 0.125 2.207031 -0.191406 1.5625 -0.828125 C 0.914062 -1.460938 0.59375 -2.359375 0.59375 -3.515625 C 0.59375 -4.710938 0.890625 -5.640625 1.484375 -6.296875 C 2.085938 -6.953125 2.914062 -7.28125 3.96875 -7.28125 C 4.976562 -7.28125 5.765625 -6.992188 6.328125 -6.421875 C 6.890625 -5.847656 7.171875 -5.050781 7.171875 -4.03125 L 7.171875 -3.09375 L 2.5625 -3.09375 C 2.582031 -2.53125 2.742188 -2.09375 3.046875 -1.78125 C 3.359375 -1.476562 3.789062 -1.328125 4.34375 -1.328125 C 4.78125 -1.328125 5.1875 -1.367188 5.5625 -1.453125 C 5.945312 -1.546875 6.347656 -1.691406 6.765625 -1.890625 L 6.765625 -0.375 C 6.429688 -0.207031 6.066406 -0.0820312 5.671875 0 C 5.285156 0.0820312 4.816406 0.125 4.265625 0.125 Z M 4.265625 0.125 "/></g></g><g transform="translate(59.434396, 157.104096)"><g><path d="M 0.453125 3.140625 C -0.046875 3.140625 -0.476562 3.085938 -0.84375 2.984375 L -0.84375 1.453125 C -0.539062 1.535156 -0.234375 1.578125 0.078125 1.578125 C 0.398438 1.578125 0.632812 1.484375 0.78125 1.296875 C 0.9375 1.109375 1.015625 0.835938 1.015625 0.484375 L 1.015625 -7.140625 L 2.96875 -7.140625 L 2.96875 0.78125 C 2.96875 1.53125 2.75 2.109375 2.3125 2.515625 C 1.875 2.929688 1.253906 3.140625 0.453125 3.140625 Z M 0.9375 -9 C 0.9375 -9.632812 1.289062 -9.953125 2 -9.953125 C 2.707031 -9.953125 3.0625 -9.632812 3.0625 -9 C 3.0625 -8.695312 2.972656 -8.457031 2.796875 -8.28125 C 2.617188 -8.113281 2.351562 -8.03125 2 -8.03125 C 1.289062 -8.03125 0.9375 -8.351562 0.9375 -9 Z M 0.9375 -9 "/></g></g><g transform="translate(63.429569, 157.104096)"><g><path d="M 5.5625 0 L 5.1875 -0.96875 L 5.140625 -0.96875 C 4.804688 -0.5625 4.460938 -0.273438 4.109375 -0.109375 C 3.765625 0.046875 3.316406 0.125 2.765625 0.125 C 2.078125 0.125 1.535156 -0.0664062 1.140625 -0.453125 C 0.742188 -0.847656 0.546875 -1.410156 0.546875 -2.140625 C 0.546875 -2.898438 0.8125 -3.457031 1.34375 -3.8125 C 1.875 -4.175781 2.675781 -4.375 3.75 -4.40625 L 4.984375 -4.453125 L 4.984375 -4.765625 C 4.984375 -5.484375 4.613281 -5.84375 3.875 -5.84375 C 3.300781 -5.84375 2.628906 -5.671875 1.859375 -5.328125 L 1.21875 -6.65625 C 2.039062 -7.082031 2.953125 -7.296875 3.953125 -7.296875 C 4.910156 -7.296875 5.644531 -7.085938 6.15625 -6.671875 C 6.664062 -6.253906 6.921875 -5.617188 6.921875 -4.765625 L 6.921875 0 Z M 4.984375 -3.3125 L 4.234375 -3.28125 C 3.660156 -3.269531 3.234375 -3.171875 2.953125 -2.984375 C 2.679688 -2.796875 2.546875 -2.507812 2.546875 -2.125 C 2.546875 -1.570312 2.863281 -1.296875 3.5 -1.296875 C 3.945312 -1.296875 4.304688 -1.425781 4.578125 -1.6875 C 4.847656 -1.945312 4.984375 -2.289062 4.984375 -2.71875 Z M 4.984375 -3.3125 "/></g></g><g transform="translate(71.336814, 157.104096)"><g><path d="M 7.625 0 L 5.671875 0 L 5.671875 -4.171875 C 5.671875 -4.691406 5.578125 -5.078125 5.390625 -5.328125 C 5.210938 -5.585938 4.921875 -5.71875 4.515625 -5.71875 C 3.972656 -5.71875 3.578125 -5.535156 3.328125 -5.171875 C 3.085938 -4.804688 2.96875 -4.203125 2.96875 -3.359375 L 2.96875 0 L 1.015625 0 L 1.015625 -7.140625 L 2.515625 -7.140625 L 2.78125 -6.234375 L 2.890625 -6.234375 C 3.097656 -6.578125 3.394531 -6.835938 3.78125 -7.015625 C 4.164062 -7.191406 4.597656 -7.28125 5.078125 -7.28125 C 5.910156 -7.28125 6.539062 -7.054688 6.96875 -6.609375 C 7.40625 -6.160156 7.625 -5.507812 7.625 -4.65625 Z M 7.625 0 "/></g></g><g transform="translate(79.940817, 157.104096)"><g><path d="M 3.28125 0.125 C 2.445312 0.125 1.789062 -0.195312 1.3125 -0.84375 C 0.832031 -1.5 0.59375 -2.40625 0.59375 -3.5625 C 0.59375 -4.726562 0.832031 -5.640625 1.3125 -6.296875 C 1.800781 -6.953125 2.476562 -7.28125 3.34375 -7.28125 C 4.238281 -7.28125 4.921875 -6.929688 5.390625 -6.234375 L 5.453125 -6.234375 C 5.359375 -6.765625 5.3125 -7.238281 5.3125 -7.65625 L 5.3125 -9.953125 L 7.265625 -9.953125 L 7.265625 0 L 5.765625 0 L 5.390625 -0.921875 L 5.3125 -0.921875 C 4.863281 -0.222656 4.1875 0.125 3.28125 0.125 Z M 3.96875 -1.421875 C 4.46875 -1.421875 4.832031 -1.566406 5.0625 -1.859375 C 5.300781 -2.148438 5.429688 -2.644531 5.453125 -3.34375 L 5.453125 -3.546875 C 5.453125 -4.316406 5.332031 -4.867188 5.09375 -5.203125 C 4.851562 -5.535156 4.46875 -5.703125 3.9375 -5.703125 C 3.5 -5.703125 3.160156 -5.515625 2.921875 -5.140625 C 2.679688 -4.773438 2.5625 -4.238281 2.5625 -3.53125 C 2.5625 -2.832031 2.679688 -2.304688 2.921875 -1.953125 C 3.171875 -1.597656 3.519531 -1.421875 3.96875 -1.421875 Z M 3.96875 -1.421875 "/></g></g><g transform="translate(88.225207, 157.104096)"><g><path d="M 5.015625 -7.28125 C 5.273438 -7.28125 5.492188 -7.257812 5.671875 -7.21875 L 5.53125 -5.390625 C 5.363281 -5.429688 5.171875 -5.453125 4.953125 -5.453125 C 4.328125 -5.453125 3.835938 -5.289062 3.484375 -4.96875 C 3.140625 -4.65625 2.96875 -4.210938 2.96875 -3.640625 L 2.96875 0 L 1.015625 0 L 1.015625 -7.140625 L 2.5 -7.140625 L 2.78125 -5.953125 L 2.890625 -5.953125 C 3.109375 -6.347656 3.40625 -6.664062 3.78125 -6.90625 C 4.15625 -7.15625 4.566406 -7.28125 5.015625 -7.28125 Z M 5.015625 -7.28125 "/></g></g><g transform="translate(94.170023, 157.104096)"><g><path d="M 5.5625 0 L 5.1875 -0.96875 L 5.140625 -0.96875 C 4.804688 -0.5625 4.460938 -0.273438 4.109375 -0.109375 C 3.765625 0.046875 3.316406 0.125 2.765625 0.125 C 2.078125 0.125 1.535156 -0.0664062 1.140625 -0.453125 C 0.742188 -0.847656 0.546875 -1.410156 0.546875 -2.140625 C 0.546875 -2.898438 0.8125 -3.457031 1.34375 -3.8125 C 1.875 -4.175781 2.675781 -4.375 3.75 -4.40625 L 4.984375 -4.453125 L 4.984375 -4.765625 C 4.984375 -5.484375 4.613281 -5.84375 3.875 -5.84375 C 3.300781 -5.84375 2.628906 -5.671875 1.859375 -5.328125 L 1.21875 -6.65625 C 2.039062 -7.082031 2.953125 -7.296875 3.953125 -7.296875 C 4.910156 -7.296875 5.644531 -7.085938 6.15625 -6.671875 C 6.664062 -6.253906 6.921875 -5.617188 6.921875 -4.765625 L 6.921875 0 Z M 4.984375 -3.3125 L 4.234375 -3.28125 C 3.660156 -3.269531 3.234375 -3.171875 2.953125 -2.984375 C 2.679688 -2.796875 2.546875 -2.507812 2.546875 -2.125 C 2.546875 -1.570312 2.863281 -1.296875 3.5 -1.296875 C 3.945312 -1.296875 4.304688 -1.425781 4.578125 -1.6875 C 4.847656 -1.945312 4.984375 -2.289062 4.984375 -2.71875 Z M 4.984375 -3.3125 "/></g></g><g transform="translate(102.077268, 157.104096)"><g/></g><g transform="translate(105.477959, 157.104096)"><g><path d="M 3.15625 -4.953125 L 3.8125 -4.953125 C 4.414062 -4.953125 4.867188 -5.070312 5.171875 -5.3125 C 5.472656 -5.550781 5.625 -5.898438 5.625 -6.359375 C 5.625 -6.828125 5.5 -7.171875 5.25 -7.390625 C 5 -7.609375 4.601562 -7.71875 4.0625 -7.71875 L 3.15625 -7.71875 Z M 7.640625 -6.4375 C 7.640625 -5.425781 7.320312 -4.65625 6.6875 -4.125 C 6.0625 -3.59375 5.171875 -3.328125 4.015625 -3.328125 L 3.15625 -3.328125 L 3.15625 0 L 1.171875 0 L 1.171875 -9.34375 L 4.15625 -9.34375 C 5.289062 -9.34375 6.15625 -9.097656 6.75 -8.609375 C 7.34375 -8.128906 7.640625 -7.40625 7.640625 -6.4375 Z M 7.640625 -6.4375 "/></g></g><g transform="translate(113.698426, 157.104096)"><g><path d="M 3.984375 -5.890625 C 3.566406 -5.890625 3.238281 -5.757812 3 -5.5 C 2.769531 -5.238281 2.640625 -4.867188 2.609375 -4.390625 L 5.34375 -4.390625 C 5.332031 -4.867188 5.207031 -5.238281 4.96875 -5.5 C 4.726562 -5.757812 4.398438 -5.890625 3.984375 -5.890625 Z M 4.265625 0.125 C 3.109375 0.125 2.207031 -0.191406 1.5625 -0.828125 C 0.914062 -1.460938 0.59375 -2.359375 0.59375 -3.515625 C 0.59375 -4.710938 0.890625 -5.640625 1.484375 -6.296875 C 2.085938 -6.953125 2.914062 -7.28125 3.96875 -7.28125 C 4.976562 -7.28125 5.765625 -6.992188 6.328125 -6.421875 C 6.890625 -5.847656 7.171875 -5.050781 7.171875 -4.03125 L 7.171875 -3.09375 L 2.5625 -3.09375 C 2.582031 -2.53125 2.742188 -2.09375 3.046875 -1.78125 C 3.359375 -1.476562 3.789062 -1.328125 4.34375 -1.328125 C 4.78125 -1.328125 5.1875 -1.367188 5.5625 -1.453125 C 5.945312 -1.546875 6.347656 -1.691406 6.765625 -1.890625 L 6.765625 -0.375 C 6.429688 -0.207031 6.066406 -0.0820312 5.671875 0 C 5.285156 0.0820312 4.816406 0.125 4.265625 0.125 Z M 2.859375 -7.9375 L 2.859375 -8.109375 C 3.585938 -8.960938 4.085938 -9.601562 4.359375 -10.03125 L 6.546875 -10.03125 L 6.546875 -9.890625 C 6.328125 -9.671875 5.945312 -9.34375 5.40625 -8.90625 C 4.875 -8.46875 4.457031 -8.144531 4.15625 -7.9375 Z M 2.859375 -7.9375 "/></g></g><g transform="translate(121.43308, 157.104096)"><g><path d="M 5.015625 -7.28125 C 5.273438 -7.28125 5.492188 -7.257812 5.671875 -7.21875 L 5.53125 -5.390625 C 5.363281 -5.429688 5.171875 -5.453125 4.953125 -5.453125 C 4.328125 -5.453125 3.835938 -5.289062 3.484375 -4.96875 C 3.140625 -4.65625 2.96875 -4.210938 2.96875 -3.640625 L 2.96875 0 L 1.015625 0 L 1.015625 -7.140625 L 2.5 -7.140625 L 2.78125 -5.953125 L 2.890625 -5.953125 C 3.109375 -6.347656 3.40625 -6.664062 3.78125 -6.90625 C 4.15625 -7.15625 4.566406 -7.28125 5.015625 -7.28125 Z M 5.015625 -7.28125 "/></g></g><g transform="translate(127.377896, 157.104096)"><g><path d="M 3.984375 -5.890625 C 3.566406 -5.890625 3.238281 -5.757812 3 -5.5 C 2.769531 -5.238281 2.640625 -4.867188 2.609375 -4.390625 L 5.34375 -4.390625 C 5.332031 -4.867188 5.207031 -5.238281 4.96875 -5.5 C 4.726562 -5.757812 4.398438 -5.890625 3.984375 -5.890625 Z M 4.265625 0.125 C 3.109375 0.125 2.207031 -0.191406 1.5625 -0.828125 C 0.914062 -1.460938 0.59375 -2.359375 0.59375 -3.515625 C 0.59375 -4.710938 0.890625 -5.640625 1.484375 -6.296875 C 2.085938 -6.953125 2.914062 -7.28125 3.96875 -7.28125 C 4.976562 -7.28125 5.765625 -6.992188 6.328125 -6.421875 C 6.890625 -5.847656 7.171875 -5.050781 7.171875 -4.03125 L 7.171875 -3.09375 L 2.5625 -3.09375 C 2.582031 -2.53125 2.742188 -2.09375 3.046875 -1.78125 C 3.359375 -1.476562 3.789062 -1.328125 4.34375 -1.328125 C 4.78125 -1.328125 5.1875 -1.367188 5.5625 -1.453125 C 5.945312 -1.546875 6.347656 -1.691406 6.765625 -1.890625 L 6.765625 -0.375 C 6.429688 -0.207031 6.066406 -0.0820312 5.671875 0 C 5.285156 0.0820312 4.816406 0.125 4.265625 0.125 Z M 4.265625 0.125 "/></g></g><g transform="translate(135.11255, 157.104096)"><g><path d="M 6 0 L 0.359375 0 L 0.359375 -1.15625 L 3.65625 -5.65625 L 0.546875 -5.65625 L 0.546875 -7.140625 L 5.875 -7.140625 L 5.875 -5.875 L 2.65625 -1.484375 L 6 -1.484375 Z M 6 0 "/></g></g></g><g fill="#ffffff" fill-opacity="1"><g transform="translate(141.498433, 157.104096)"><g/></g></g><g fill="#ffffff" fill-opacity="1"><g transform="translate(38.672284, 135.163904)"><g><path d="M 4.859375 -9.171875 C 6.003906 -9.171875 6.894531 -8.898438 7.53125 -8.359375 C 8.175781 -7.828125 8.5 -7.082031 8.5 -6.125 C 8.5 -5.164062 8.175781 -4.414062 7.53125 -3.875 C 6.894531 -3.34375 6.003906 -3.078125 4.859375 -3.078125 L 2.125 -3.078125 L 2.125 0 L 1.671875 0 L 1.671875 -9.171875 Z M 4.890625 -3.484375 C 5.910156 -3.484375 6.691406 -3.710938 7.234375 -4.171875 C 7.785156 -4.628906 8.0625 -5.28125 8.0625 -6.125 C 8.0625 -6.96875 7.785156 -7.617188 7.234375 -8.078125 C 6.691406 -8.535156 5.910156 -8.765625 4.890625 -8.765625 L 2.125 -8.765625 L 2.125 -3.484375 Z M 4.890625 -3.484375 "/></g></g></g><g fill="#ffffff" fill-opacity="1"><g transform="translate(47.993371, 135.163904)"><g><path d="M 1.875 -5.15625 C 2.070312 -5.695312 2.394531 -6.113281 2.84375 -6.40625 C 3.289062 -6.695312 3.847656 -6.84375 4.515625 -6.84375 L 4.515625 -6.421875 L 4.40625 -6.421875 C 3.613281 -6.421875 2.992188 -6.171875 2.546875 -5.671875 C 2.109375 -5.171875 1.890625 -4.484375 1.890625 -3.609375 L 1.890625 0 L 1.453125 0 L 1.453125 -6.796875 L 1.875 -6.796875 Z M 1.875 -5.15625 "/></g></g></g><g fill="#ffffff" fill-opacity="1"><g transform="translate(53.072833, 135.163904)"><g><path d="M 4.015625 0.046875 C 3.390625 0.046875 2.820312 -0.0976562 2.3125 -0.390625 C 1.800781 -0.691406 1.398438 -1.101562 1.109375 -1.625 C 0.828125 -2.144531 0.6875 -2.738281 0.6875 -3.40625 C 0.6875 -4.070312 0.828125 -4.664062 1.109375 -5.1875 C 1.398438 -5.707031 1.800781 -6.113281 2.3125 -6.40625 C 2.820312 -6.695312 3.390625 -6.84375 4.015625 -6.84375 C 4.648438 -6.84375 5.222656 -6.695312 5.734375 -6.40625 C 6.242188 -6.113281 6.640625 -5.707031 6.921875 -5.1875 C 7.210938 -4.664062 7.359375 -4.070312 7.359375 -3.40625 C 7.359375 -2.738281 7.210938 -2.144531 6.921875 -1.625 C 6.640625 -1.101562 6.242188 -0.691406 5.734375 -0.390625 C 5.222656 -0.0976562 4.648438 0.046875 4.015625 0.046875 Z M 4.015625 -0.359375 C 4.566406 -0.359375 5.0625 -0.484375 5.5 -0.734375 C 5.945312 -0.992188 6.296875 -1.351562 6.546875 -1.8125 C 6.796875 -2.28125 6.921875 -2.8125 6.921875 -3.40625 C 6.921875 -4 6.796875 -4.523438 6.546875 -4.984375 C 6.296875 -5.441406 5.945312 -5.796875 5.5 -6.046875 C 5.0625 -6.304688 4.566406 -6.4375 4.015625 -6.4375 C 3.460938 -6.4375 2.96875 -6.304688 2.53125 -6.046875 C 2.09375 -5.796875 1.742188 -5.441406 1.484375 -4.984375 C 1.234375 -4.523438 1.109375 -4 1.109375 -3.40625 C 1.109375 -2.8125 1.234375 -2.28125 1.484375 -1.8125 C 1.742188 -1.351562 2.09375 -0.992188 2.53125 -0.734375 C 2.96875 -0.484375 3.460938 -0.359375 4.015625 -0.359375 Z M 4.015625 -0.359375 "/></g></g></g><g fill="#ffffff" fill-opacity="1"><g transform="translate(61.110958, 135.163904)"><g><path d="M 4.8125 -6.84375 C 5.425781 -6.84375 5.984375 -6.695312 6.484375 -6.40625 C 6.992188 -6.113281 7.394531 -5.703125 7.6875 -5.171875 C 7.976562 -4.648438 8.125 -4.054688 8.125 -3.390625 C 8.125 -2.722656 7.976562 -2.128906 7.6875 -1.609375 C 7.394531 -1.097656 6.992188 -0.691406 6.484375 -0.390625 C 5.984375 -0.0976562 5.425781 0.046875 4.8125 0.046875 C 4.15625 0.046875 3.566406 -0.117188 3.046875 -0.453125 C 2.523438 -0.785156 2.140625 -1.238281 1.890625 -1.8125 L 1.890625 2.546875 L 1.453125 2.546875 L 1.453125 -6.796875 L 1.875 -6.796875 L 1.875 -4.9375 C 2.125 -5.53125 2.507812 -5.992188 3.03125 -6.328125 C 3.550781 -6.671875 4.144531 -6.84375 4.8125 -6.84375 Z M 4.796875 -0.359375 C 5.347656 -0.359375 5.84375 -0.484375 6.28125 -0.734375 C 6.71875 -0.992188 7.0625 -1.351562 7.3125 -1.8125 C 7.570312 -2.269531 7.703125 -2.796875 7.703125 -3.390625 C 7.703125 -3.984375 7.570312 -4.507812 7.3125 -4.96875 C 7.0625 -5.4375 6.71875 -5.796875 6.28125 -6.046875 C 5.84375 -6.304688 5.347656 -6.4375 4.796875 -6.4375 C 4.242188 -6.4375 3.742188 -6.304688 3.296875 -6.046875 C 2.859375 -5.796875 2.515625 -5.4375 2.265625 -4.96875 C 2.015625 -4.507812 1.890625 -3.984375 1.890625 -3.390625 C 1.890625 -2.796875 2.015625 -2.269531 2.265625 -1.8125 C 2.515625 -1.351562 2.859375 -0.992188 3.296875 -0.734375 C 3.742188 -0.484375 4.242188 -0.359375 4.796875 -0.359375 Z M 4.796875 -0.359375 "/></g></g></g><g fill="#ffffff" fill-opacity="1"><g transform="translate(69.921474, 135.163904)"><g><path d="M 1.453125 -6.796875 L 1.890625 -6.796875 L 1.890625 0 L 1.453125 0 Z M 1.671875 -8.578125 C 1.554688 -8.578125 1.453125 -8.617188 1.359375 -8.703125 C 1.273438 -8.785156 1.234375 -8.882812 1.234375 -9 C 1.234375 -9.113281 1.273438 -9.210938 1.359375 -9.296875 C 1.441406 -9.378906 1.546875 -9.421875 1.671875 -9.421875 C 1.773438 -9.421875 1.867188 -9.378906 1.953125 -9.296875 C 2.046875 -9.210938 2.09375 -9.117188 2.09375 -9.015625 C 2.09375 -8.898438 2.046875 -8.796875 1.953125 -8.703125 C 1.867188 -8.617188 1.773438 -8.578125 1.671875 -8.578125 Z M 1.671875 -8.578125 "/></g></g></g><g fill="#ffffff" fill-opacity="1"><g transform="translate(73.259778, 135.163904)"><g><path d="M 7.0625 -3.34375 L 1.09375 -3.34375 C 1.101562 -2.757812 1.238281 -2.238281 1.5 -1.78125 C 1.769531 -1.332031 2.128906 -0.984375 2.578125 -0.734375 C 3.035156 -0.484375 3.550781 -0.359375 4.125 -0.359375 C 4.582031 -0.359375 5.007812 -0.441406 5.40625 -0.609375 C 5.800781 -0.773438 6.125 -1.023438 6.375 -1.359375 L 6.65625 -1.078125 C 6.34375 -0.710938 5.96875 -0.429688 5.53125 -0.234375 C 5.101562 -0.046875 4.632812 0.046875 4.125 0.046875 C 3.457031 0.046875 2.863281 -0.0976562 2.34375 -0.390625 C 1.832031 -0.691406 1.425781 -1.101562 1.125 -1.625 C 0.832031 -2.144531 0.6875 -2.738281 0.6875 -3.40625 C 0.6875 -4.070312 0.820312 -4.664062 1.09375 -5.1875 C 1.363281 -5.707031 1.742188 -6.113281 2.234375 -6.40625 C 2.722656 -6.695312 3.269531 -6.84375 3.875 -6.84375 C 4.46875 -6.84375 5.003906 -6.695312 5.484375 -6.40625 C 5.972656 -6.125 6.359375 -5.722656 6.640625 -5.203125 C 6.921875 -4.691406 7.0625 -4.109375 7.0625 -3.453125 Z M 3.875 -6.453125 C 3.363281 -6.453125 2.90625 -6.332031 2.5 -6.09375 C 2.09375 -5.863281 1.765625 -5.535156 1.515625 -5.109375 C 1.273438 -4.691406 1.140625 -4.21875 1.109375 -3.6875 L 6.65625 -3.6875 C 6.613281 -4.21875 6.46875 -4.691406 6.21875 -5.109375 C 5.976562 -5.535156 5.65625 -5.863281 5.25 -6.09375 C 4.84375 -6.332031 4.382812 -6.453125 3.875 -6.453125 Z M 3.875 -6.453125 "/></g></g></g><g fill="#ffffff" fill-opacity="1"><g transform="translate(80.996804, 135.163904)"><g><path d="M 4.65625 -0.4375 C 4.5 -0.28125 4.296875 -0.160156 4.046875 -0.078125 C 3.804688 0.00390625 3.554688 0.046875 3.296875 0.046875 C 2.742188 0.046875 2.316406 -0.109375 2.015625 -0.421875 C 1.722656 -0.734375 1.578125 -1.160156 1.578125 -1.703125 L 1.578125 -6.421875 L 0.28125 -6.421875 L 0.28125 -6.796875 L 1.578125 -6.796875 L 1.578125 -8.28125 L 2 -8.28125 L 2 -6.796875 L 4.25 -6.796875 L 4.25 -6.421875 L 2 -6.421875 L 2 -1.765625 C 2 -1.304688 2.113281 -0.953125 2.34375 -0.703125 C 2.570312 -0.460938 2.90625 -0.34375 3.34375 -0.34375 C 3.78125 -0.34375 4.144531 -0.476562 4.4375 -0.75 Z M 4.65625 -0.4375 "/></g></g></g><g fill="#ffffff" fill-opacity="1"><g transform="translate(86.12864, 135.163904)"><g><path d="M 3.671875 -6.84375 C 4.484375 -6.84375 5.101562 -6.632812 5.53125 -6.21875 C 5.96875 -5.800781 6.1875 -5.195312 6.1875 -4.40625 L 6.1875 0 L 5.78125 0 L 5.78125 -1.359375 C 5.5625 -0.921875 5.234375 -0.578125 4.796875 -0.328125 C 4.367188 -0.078125 3.851562 0.046875 3.25 0.046875 C 2.488281 0.046875 1.890625 -0.128906 1.453125 -0.484375 C 1.023438 -0.835938 0.8125 -1.300781 0.8125 -1.875 C 0.8125 -2.425781 1.003906 -2.875 1.390625 -3.21875 C 1.785156 -3.5625 2.414062 -3.734375 3.28125 -3.734375 L 5.765625 -3.734375 L 5.765625 -4.40625 C 5.765625 -5.070312 5.585938 -5.578125 5.234375 -5.921875 C 4.878906 -6.273438 4.359375 -6.453125 3.671875 -6.453125 C 3.191406 -6.453125 2.738281 -6.367188 2.3125 -6.203125 C 1.894531 -6.035156 1.539062 -5.8125 1.25 -5.53125 L 1.015625 -5.859375 C 1.335938 -6.171875 1.734375 -6.410156 2.203125 -6.578125 C 2.671875 -6.753906 3.160156 -6.84375 3.671875 -6.84375 Z M 3.265625 -0.328125 C 4.492188 -0.328125 5.328125 -0.875 5.765625 -1.96875 L 5.765625 -3.375 L 3.28125 -3.375 C 2.570312 -3.375 2.054688 -3.238281 1.734375 -2.96875 C 1.410156 -2.707031 1.25 -2.351562 1.25 -1.90625 C 1.25 -1.414062 1.425781 -1.03125 1.78125 -0.75 C 2.144531 -0.46875 2.640625 -0.328125 3.265625 -0.328125 Z M 3.265625 -0.328125 "/></g></g></g><g fill="#ffffff" fill-opacity="1"><g transform="translate(93.695472, 135.163904)"><g><path d="M 1.875 -5.15625 C 2.070312 -5.695312 2.394531 -6.113281 2.84375 -6.40625 C 3.289062 -6.695312 3.847656 -6.84375 4.515625 -6.84375 L 4.515625 -6.421875 L 4.40625 -6.421875 C 3.613281 -6.421875 2.992188 -6.171875 2.546875 -5.671875 C 2.109375 -5.171875 1.890625 -4.484375 1.890625 -3.609375 L 1.890625 0 L 1.453125 0 L 1.453125 -6.796875 L 1.875 -6.796875 Z M 1.875 -5.15625 "/></g></g></g><g fill="#ffffff" fill-opacity="1"><g transform="translate(98.774934, 135.163904)"><g><path d="M 1.453125 -6.796875 L 1.890625 -6.796875 L 1.890625 0 L 1.453125 0 Z M 1.671875 -8.578125 C 1.554688 -8.578125 1.453125 -8.617188 1.359375 -8.703125 C 1.273438 -8.785156 1.234375 -8.882812 1.234375 -9 C 1.234375 -9.113281 1.273438 -9.210938 1.359375 -9.296875 C 1.441406 -9.378906 1.546875 -9.421875 1.671875 -9.421875 C 1.773438 -9.421875 1.867188 -9.378906 1.953125 -9.296875 C 2.046875 -9.210938 2.09375 -9.117188 2.09375 -9.015625 C 2.09375 -8.898438 2.046875 -8.796875 1.953125 -8.703125 C 1.867188 -8.617188 1.773438 -8.578125 1.671875 -8.578125 Z M 1.671875 -8.578125 "/></g></g></g><g fill="#ffffff" fill-opacity="1"><g transform="translate(102.113237, 135.163904)"><g><path d="M 4.015625 0.046875 C 3.390625 0.046875 2.820312 -0.0976562 2.3125 -0.390625 C 1.800781 -0.691406 1.398438 -1.101562 1.109375 -1.625 C 0.828125 -2.144531 0.6875 -2.738281 0.6875 -3.40625 C 0.6875 -4.070312 0.828125 -4.664062 1.109375 -5.1875 C 1.398438 -5.707031 1.800781 -6.113281 2.3125 -6.40625 C 2.820312 -6.695312 3.390625 -6.84375 4.015625 -6.84375 C 4.648438 -6.84375 5.222656 -6.695312 5.734375 -6.40625 C 6.242188 -6.113281 6.640625 -5.707031 6.921875 -5.1875 C 7.210938 -4.664062 7.359375 -4.070312 7.359375 -3.40625 C 7.359375 -2.738281 7.210938 -2.144531 6.921875 -1.625 C 6.640625 -1.101562 6.242188 -0.691406 5.734375 -0.390625 C 5.222656 -0.0976562 4.648438 0.046875 4.015625 0.046875 Z M 4.015625 -0.359375 C 4.566406 -0.359375 5.0625 -0.484375 5.5 -0.734375 C 5.945312 -0.992188 6.296875 -1.351562 6.546875 -1.8125 C 6.796875 -2.28125 6.921875 -2.8125 6.921875 -3.40625 C 6.921875 -4 6.796875 -4.523438 6.546875 -4.984375 C 6.296875 -5.441406 5.945312 -5.796875 5.5 -6.046875 C 5.0625 -6.304688 4.566406 -6.4375 4.015625 -6.4375 C 3.460938 -6.4375 2.96875 -6.304688 2.53125 -6.046875 C 2.09375 -5.796875 1.742188 -5.441406 1.484375 -4.984375 C 1.234375 -4.523438 1.109375 -4 1.109375 -3.40625 C 1.109375 -2.8125 1.234375 -2.28125 1.484375 -1.8125 C 1.742188 -1.351562 2.09375 -0.992188 2.53125 -0.734375 C 2.96875 -0.484375 3.460938 -0.359375 4.015625 -0.359375 Z M 4.015625 -0.359375 "/></g></g></g><g clip-path="url(#56ee3504cc)"><g clip-path="url(#033a582721)"><path fill="#ffde59" d="M 267.132812 116.9375 L 306.335938 116.9375 L 306.335938 156.140625 L 267.132812 156.140625 Z M 267.132812 116.9375 " fill-opacity="1" fill-rule="nonzero"/></g></g><g fill="#ffffff" fill-opacity="1"><g transform="translate(250.765303, 172.486479)"><g><path d="M 7.625 0 L 5.671875 0 L 5.671875 -4.171875 C 5.671875 -4.691406 5.578125 -5.078125 5.390625 -5.328125 C 5.210938 -5.585938 4.921875 -5.71875 4.515625 -5.71875 C 3.972656 -5.71875 3.578125 -5.535156 3.328125 -5.171875 C 3.085938 -4.804688 2.96875 -4.203125 2.96875 -3.359375 L 2.96875 0 L 1.015625 0 L 1.015625 -7.140625 L 2.515625 -7.140625 L 2.78125 -6.234375 L 2.890625 -6.234375 C 3.097656 -6.578125 3.394531 -6.835938 3.78125 -7.015625 C 4.164062 -7.191406 4.597656 -7.28125 5.078125 -7.28125 C 5.910156 -7.28125 6.539062 -7.054688 6.96875 -6.609375 C 7.40625 -6.160156 7.625 -5.507812 7.625 -4.65625 Z M 7.625 0 "/></g></g><g transform="translate(259.369307, 172.486479)"><g><path d="M 6.09375 0 L 5.828125 -0.921875 L 5.71875 -0.921875 C 5.507812 -0.585938 5.210938 -0.328125 4.828125 -0.140625 C 4.453125 0.0351562 4.015625 0.125 3.515625 0.125 C 2.679688 0.125 2.050781 -0.0976562 1.625 -0.546875 C 1.195312 -0.992188 0.984375 -1.640625 0.984375 -2.484375 L 0.984375 -7.140625 L 2.9375 -7.140625 L 2.9375 -2.96875 C 2.9375 -2.457031 3.023438 -2.070312 3.203125 -1.8125 C 3.390625 -1.550781 3.679688 -1.421875 4.078125 -1.421875 C 4.628906 -1.421875 5.023438 -1.601562 5.265625 -1.96875 C 5.503906 -2.332031 5.625 -2.9375 5.625 -3.78125 L 5.625 -7.140625 L 7.578125 -7.140625 L 7.578125 0 Z M 6.09375 0 "/></g></g><g transform="translate(267.97331, 172.486479)"><g><path d="M 3.921875 0.125 C 1.703125 0.125 0.59375 -1.09375 0.59375 -3.53125 C 0.59375 -4.75 0.894531 -5.675781 1.5 -6.3125 C 2.101562 -6.957031 2.96875 -7.28125 4.09375 -7.28125 C 4.925781 -7.28125 5.671875 -7.117188 6.328125 -6.796875 L 5.75 -5.28125 C 5.4375 -5.40625 5.148438 -5.503906 4.890625 -5.578125 C 4.628906 -5.660156 4.363281 -5.703125 4.09375 -5.703125 C 3.082031 -5.703125 2.578125 -4.984375 2.578125 -3.546875 C 2.578125 -2.148438 3.082031 -1.453125 4.09375 -1.453125 C 4.46875 -1.453125 4.816406 -1.5 5.140625 -1.59375 C 5.460938 -1.695312 5.78125 -1.859375 6.09375 -2.078125 L 6.09375 -0.40625 C 5.78125 -0.207031 5.460938 -0.0703125 5.140625 0 C 4.816406 0.0820312 4.410156 0.125 3.921875 0.125 Z M 3.921875 0.125 "/></g></g><g transform="translate(274.704376, 172.486479)"><g><path d="M 2.96875 0 L 1.015625 0 L 1.015625 -9.953125 L 2.96875 -9.953125 Z M 2.96875 0 "/></g></g><g transform="translate(278.699549, 172.486479)"><g><path d="M 3.984375 -5.890625 C 3.566406 -5.890625 3.238281 -5.757812 3 -5.5 C 2.769531 -5.238281 2.640625 -4.867188 2.609375 -4.390625 L 5.34375 -4.390625 C 5.332031 -4.867188 5.207031 -5.238281 4.96875 -5.5 C 4.726562 -5.757812 4.398438 -5.890625 3.984375 -5.890625 Z M 4.265625 0.125 C 3.109375 0.125 2.207031 -0.191406 1.5625 -0.828125 C 0.914062 -1.460938 0.59375 -2.359375 0.59375 -3.515625 C 0.59375 -4.710938 0.890625 -5.640625 1.484375 -6.296875 C 2.085938 -6.953125 2.914062 -7.28125 3.96875 -7.28125 C 4.976562 -7.28125 5.765625 -6.992188 6.328125 -6.421875 C 6.890625 -5.847656 7.171875 -5.050781 7.171875 -4.03125 L 7.171875 -3.09375 L 2.5625 -3.09375 C 2.582031 -2.53125 2.742188 -2.09375 3.046875 -1.78125 C 3.359375 -1.476562 3.789062 -1.328125 4.34375 -1.328125 C 4.78125 -1.328125 5.1875 -1.367188 5.5625 -1.453125 C 5.945312 -1.546875 6.347656 -1.691406 6.765625 -1.890625 L 6.765625 -0.375 C 6.429688 -0.207031 6.066406 -0.0820312 5.671875 0 C 5.285156 0.0820312 4.816406 0.125 4.265625 0.125 Z M 4.265625 0.125 "/></g></g><g transform="translate(286.434202, 172.486479)"><g><path d="M 6.09375 0 L 5.828125 -0.921875 L 5.71875 -0.921875 C 5.507812 -0.585938 5.210938 -0.328125 4.828125 -0.140625 C 4.453125 0.0351562 4.015625 0.125 3.515625 0.125 C 2.679688 0.125 2.050781 -0.0976562 1.625 -0.546875 C 1.195312 -0.992188 0.984375 -1.640625 0.984375 -2.484375 L 0.984375 -7.140625 L 2.9375 -7.140625 L 2.9375 -2.96875 C 2.9375 -2.457031 3.023438 -2.070312 3.203125 -1.8125 C 3.390625 -1.550781 3.679688 -1.421875 4.078125 -1.421875 C 4.628906 -1.421875 5.023438 -1.601562 5.265625 -1.96875 C 5.503906 -2.332031 5.625 -2.9375 5.625 -3.78125 L 5.625 -7.140625 L 7.578125 -7.140625 L 7.578125 0 Z M 6.09375 0 "/></g></g><g transform="translate(295.038206, 172.486479)"><g><path d="M 6.015625 -2.125 C 6.015625 -1.382812 5.757812 -0.820312 5.25 -0.4375 C 4.738281 -0.0625 3.972656 0.125 2.953125 0.125 C 2.441406 0.125 2 0.0859375 1.625 0.015625 C 1.257812 -0.046875 0.914062 -0.144531 0.59375 -0.28125 L 0.59375 -1.90625 C 0.957031 -1.726562 1.363281 -1.582031 1.8125 -1.46875 C 2.269531 -1.351562 2.675781 -1.296875 3.03125 -1.296875 C 3.726562 -1.296875 4.078125 -1.5 4.078125 -1.90625 C 4.078125 -2.0625 4.03125 -2.1875 3.9375 -2.28125 C 3.84375 -2.375 3.679688 -2.484375 3.453125 -2.609375 C 3.222656 -2.734375 2.914062 -2.875 2.53125 -3.03125 C 1.988281 -3.257812 1.585938 -3.472656 1.328125 -3.671875 C 1.066406 -3.867188 0.878906 -4.09375 0.765625 -4.34375 C 0.648438 -4.601562 0.59375 -4.914062 0.59375 -5.28125 C 0.59375 -5.914062 0.835938 -6.40625 1.328125 -6.75 C 1.816406 -7.101562 2.515625 -7.28125 3.421875 -7.28125 C 4.285156 -7.28125 5.125 -7.09375 5.9375 -6.71875 L 5.34375 -5.3125 C 4.988281 -5.46875 4.65625 -5.59375 4.34375 -5.6875 C 4.03125 -5.789062 3.710938 -5.84375 3.390625 -5.84375 C 2.816406 -5.84375 2.53125 -5.6875 2.53125 -5.375 C 2.53125 -5.195312 2.617188 -5.039062 2.796875 -4.90625 C 2.984375 -4.78125 3.390625 -4.59375 4.015625 -4.34375 C 4.578125 -4.125 4.988281 -3.914062 5.25 -3.71875 C 5.507812 -3.519531 5.703125 -3.289062 5.828125 -3.03125 C 5.953125 -2.78125 6.015625 -2.476562 6.015625 -2.125 Z M 6.015625 -2.125 "/></g></g></g><g fill="#ffffff" fill-opacity="1"><g transform="translate(38.672284, 41.069988)"><g><path d="M 3 0 L 1.125 0 L 1.125 -8.984375 L 6.28125 -8.984375 L 6.28125 -7.421875 L 3 -7.421875 L 3 -5.109375 L 6.0625 -5.109375 L 6.0625 -3.546875 L 3 -3.546875 Z M 3 0 "/></g></g><g transform="translate(45.586882, 41.069988)"><g><path d="M 5.34375 0 L 4.984375 -0.9375 L 4.9375 -0.9375 C 4.625 -0.539062 4.300781 -0.265625 3.96875 -0.109375 C 3.632812 0.046875 3.195312 0.125 2.65625 0.125 C 2 0.125 1.476562 -0.0625 1.09375 -0.4375 C 0.71875 -0.820312 0.53125 -1.359375 0.53125 -2.046875 C 0.53125 -2.785156 0.785156 -3.328125 1.296875 -3.671875 C 1.804688 -4.015625 2.578125 -4.207031 3.609375 -4.25 L 4.796875 -4.28125 L 4.796875 -4.578125 C 4.796875 -5.273438 4.4375 -5.625 3.71875 -5.625 C 3.175781 -5.625 2.535156 -5.457031 1.796875 -5.125 L 1.171875 -6.390625 C 1.960938 -6.804688 2.835938 -7.015625 3.796875 -7.015625 C 4.722656 -7.015625 5.429688 -6.8125 5.921875 -6.40625 C 6.410156 -6.007812 6.65625 -5.398438 6.65625 -4.578125 L 6.65625 0 Z M 4.796875 -3.1875 L 4.078125 -3.15625 C 3.523438 -3.144531 3.113281 -3.046875 2.84375 -2.859375 C 2.582031 -2.679688 2.453125 -2.410156 2.453125 -2.046875 C 2.453125 -1.515625 2.753906 -1.25 3.359375 -1.25 C 3.796875 -1.25 4.144531 -1.375 4.40625 -1.625 C 4.664062 -1.875 4.796875 -2.207031 4.796875 -2.625 Z M 2.71875 -7.625 L 2.71875 -7.796875 C 3.414062 -8.617188 3.894531 -9.234375 4.15625 -9.640625 L 6.265625 -9.640625 L 6.265625 -9.515625 C 6.046875 -9.304688 5.675781 -8.988281 5.15625 -8.5625 C 4.644531 -8.144531 4.25 -7.832031 3.96875 -7.625 Z M 2.71875 -7.625 "/></g></g><g transform="translate(53.19663, 41.069988)"><g><path d="M 3.78125 0.125 C 1.632812 0.125 0.5625 -1.050781 0.5625 -3.40625 C 0.5625 -4.570312 0.851562 -5.460938 1.4375 -6.078125 C 2.019531 -6.691406 2.851562 -7 3.9375 -7 C 4.738281 -7 5.453125 -6.84375 6.078125 -6.53125 L 5.53125 -5.078125 C 5.226562 -5.203125 4.953125 -5.300781 4.703125 -5.375 C 4.453125 -5.445312 4.195312 -5.484375 3.9375 -5.484375 C 2.96875 -5.484375 2.484375 -4.789062 2.484375 -3.40625 C 2.484375 -2.0625 2.96875 -1.390625 3.9375 -1.390625 C 4.300781 -1.390625 4.632812 -1.4375 4.9375 -1.53125 C 5.25 -1.632812 5.554688 -1.789062 5.859375 -2 L 5.859375 -0.390625 C 5.554688 -0.191406 5.25 -0.0546875 4.9375 0.015625 C 4.632812 0.0859375 4.25 0.125 3.78125 0.125 Z M 3.78125 0.125 "/></g></g><g transform="translate(59.674451, 41.069988)"><g><path d="M 0.90625 -8.65625 C 0.90625 -9.257812 1.242188 -9.5625 1.921875 -9.5625 C 2.609375 -9.5625 2.953125 -9.257812 2.953125 -8.65625 C 2.953125 -8.363281 2.863281 -8.132812 2.6875 -7.96875 C 2.519531 -7.8125 2.265625 -7.734375 1.921875 -7.734375 C 1.242188 -7.734375 0.90625 -8.039062 0.90625 -8.65625 Z M 2.859375 0 L 0.984375 0 L 0.984375 -6.875 L 2.859375 -6.875 Z M 2.859375 0 "/></g></g><g transform="translate(63.519311, 41.069988)"><g><path d="M 2.859375 0 L 0.984375 0 L 0.984375 -9.5625 L 2.859375 -9.5625 Z M 2.859375 0 "/></g></g><g transform="translate(67.364172, 41.069988)"><g><path d="M 2.828125 -1.328125 C 2.609375 -0.492188 2.242188 0.488281 1.734375 1.625 L 0.390625 1.625 C 0.648438 0.53125 0.859375 -0.5 1.015625 -1.46875 L 2.734375 -1.46875 Z M 2.828125 -1.328125 "/></g></g><g transform="translate(71.018327, 41.069988)"><g/></g><g transform="translate(74.291072, 41.069988)"><g><path d="M 6.4375 -2.5 C 6.4375 -1.6875 6.144531 -1.046875 5.5625 -0.578125 C 4.976562 -0.109375 4.164062 0.125 3.125 0.125 C 2.164062 0.125 1.316406 -0.0546875 0.578125 -0.421875 L 0.578125 -2.1875 C 1.179688 -1.914062 1.691406 -1.722656 2.109375 -1.609375 C 2.535156 -1.503906 2.921875 -1.453125 3.265625 -1.453125 C 3.691406 -1.453125 4.015625 -1.53125 4.234375 -1.6875 C 4.453125 -1.851562 4.5625 -2.09375 4.5625 -2.40625 C 4.5625 -2.582031 4.515625 -2.738281 4.421875 -2.875 C 4.328125 -3.007812 4.179688 -3.140625 3.984375 -3.265625 C 3.796875 -3.398438 3.410156 -3.601562 2.828125 -3.875 C 2.273438 -4.132812 1.859375 -4.382812 1.578125 -4.625 C 1.304688 -4.863281 1.085938 -5.140625 0.921875 -5.453125 C 0.765625 -5.765625 0.6875 -6.132812 0.6875 -6.5625 C 0.6875 -7.351562 0.953125 -7.976562 1.484375 -8.4375 C 2.023438 -8.894531 2.769531 -9.125 3.71875 -9.125 C 4.1875 -9.125 4.632812 -9.066406 5.0625 -8.953125 C 5.488281 -8.835938 5.929688 -8.679688 6.390625 -8.484375 L 5.78125 -7 C 5.300781 -7.195312 4.90625 -7.332031 4.59375 -7.40625 C 4.28125 -7.488281 3.972656 -7.53125 3.671875 -7.53125 C 3.304688 -7.53125 3.023438 -7.445312 2.828125 -7.28125 C 2.640625 -7.113281 2.546875 -6.894531 2.546875 -6.625 C 2.546875 -6.457031 2.582031 -6.3125 2.65625 -6.1875 C 2.738281 -6.0625 2.863281 -5.9375 3.03125 -5.8125 C 3.207031 -5.695312 3.613281 -5.488281 4.25 -5.1875 C 5.082031 -4.789062 5.65625 -4.390625 5.96875 -3.984375 C 6.28125 -3.578125 6.4375 -3.082031 6.4375 -2.5 Z M 6.4375 -2.5 "/></g></g><g transform="translate(81.230277, 41.069988)"><g><path d="M 3.828125 -5.671875 C 3.429688 -5.671875 3.117188 -5.539062 2.890625 -5.28125 C 2.671875 -5.03125 2.546875 -4.675781 2.515625 -4.21875 L 5.140625 -4.21875 C 5.128906 -4.675781 5.003906 -5.03125 4.765625 -5.28125 C 4.535156 -5.539062 4.222656 -5.671875 3.828125 -5.671875 Z M 4.09375 0.125 C 2.988281 0.125 2.125 -0.175781 1.5 -0.78125 C 0.875 -1.394531 0.5625 -2.265625 0.5625 -3.390625 C 0.5625 -4.535156 0.847656 -5.421875 1.421875 -6.046875 C 2.003906 -6.679688 2.800781 -7 3.8125 -7 C 4.789062 -7 5.550781 -6.722656 6.09375 -6.171875 C 6.632812 -5.617188 6.90625 -4.851562 6.90625 -3.875 L 6.90625 -2.96875 L 2.46875 -2.96875 C 2.488281 -2.4375 2.644531 -2.019531 2.9375 -1.71875 C 3.226562 -1.414062 3.644531 -1.265625 4.1875 -1.265625 C 4.59375 -1.265625 4.976562 -1.304688 5.34375 -1.390625 C 5.71875 -1.484375 6.109375 -1.625 6.515625 -1.8125 L 6.515625 -0.359375 C 6.179688 -0.191406 5.828125 -0.0703125 5.453125 0 C 5.085938 0.0820312 4.632812 0.125 4.09375 0.125 Z M 4.09375 0.125 "/></g></g><g transform="translate(88.673926, 41.069988)"><g><path d="M 6.96875 -6.875 L 6.96875 -5.921875 L 5.890625 -5.640625 C 6.085938 -5.335938 6.1875 -4.992188 6.1875 -4.609375 C 6.1875 -3.867188 5.925781 -3.289062 5.40625 -2.875 C 4.894531 -2.46875 4.179688 -2.265625 3.265625 -2.265625 L 2.9375 -2.28125 L 2.65625 -2.3125 C 2.46875 -2.164062 2.375 -2.003906 2.375 -1.828125 C 2.375 -1.554688 2.71875 -1.421875 3.40625 -1.421875 L 4.5625 -1.421875 C 5.320312 -1.421875 5.898438 -1.257812 6.296875 -0.9375 C 6.691406 -0.613281 6.890625 -0.140625 6.890625 0.484375 C 6.890625 1.296875 6.550781 1.921875 5.875 2.359375 C 5.207031 2.804688 4.25 3.03125 3 3.03125 C 2.039062 3.03125 1.304688 2.859375 0.796875 2.515625 C 0.285156 2.179688 0.03125 1.71875 0.03125 1.125 C 0.03125 0.707031 0.160156 0.359375 0.421875 0.078125 C 0.679688 -0.203125 1.0625 -0.398438 1.5625 -0.515625 C 1.363281 -0.597656 1.191406 -0.734375 1.046875 -0.921875 C 0.910156 -1.109375 0.84375 -1.304688 0.84375 -1.515625 C 0.84375 -1.773438 0.914062 -1.988281 1.0625 -2.15625 C 1.21875 -2.332031 1.441406 -2.507812 1.734375 -2.6875 C 1.367188 -2.84375 1.078125 -3.09375 0.859375 -3.4375 C 0.648438 -3.78125 0.546875 -4.1875 0.546875 -4.65625 C 0.546875 -5.40625 0.789062 -5.984375 1.28125 -6.390625 C 1.769531 -6.796875 2.46875 -7 3.375 -7 C 3.570312 -7 3.800781 -6.984375 4.0625 -6.953125 C 4.320312 -6.921875 4.488281 -6.894531 4.5625 -6.875 Z M 1.65625 0.96875 C 1.65625 1.226562 1.78125 1.429688 2.03125 1.578125 C 2.28125 1.722656 2.628906 1.796875 3.078125 1.796875 C 3.742188 1.796875 4.269531 1.703125 4.65625 1.515625 C 5.039062 1.335938 5.234375 1.085938 5.234375 0.765625 C 5.234375 0.503906 5.117188 0.328125 4.890625 0.234375 C 4.660156 0.140625 4.3125 0.09375 3.84375 0.09375 L 2.875 0.09375 C 2.53125 0.09375 2.238281 0.171875 2 0.328125 C 1.769531 0.492188 1.65625 0.707031 1.65625 0.96875 Z M 2.34375 -4.625 C 2.34375 -4.25 2.425781 -3.953125 2.59375 -3.734375 C 2.769531 -3.515625 3.03125 -3.40625 3.375 -3.40625 C 3.726562 -3.40625 3.984375 -3.515625 4.140625 -3.734375 C 4.304688 -3.953125 4.390625 -4.25 4.390625 -4.625 C 4.390625 -5.445312 4.050781 -5.859375 3.375 -5.859375 C 2.6875 -5.859375 2.34375 -5.445312 2.34375 -4.625 Z M 2.34375 -4.625 "/></g></g><g transform="translate(95.791532, 41.069988)"><g><path d="M 5.859375 0 L 5.609375 -0.875 L 5.5 -0.875 C 5.300781 -0.5625 5.015625 -0.316406 4.640625 -0.140625 C 4.273438 0.0351562 3.859375 0.125 3.390625 0.125 C 2.578125 0.125 1.96875 -0.0859375 1.5625 -0.515625 C 1.15625 -0.953125 0.953125 -1.578125 0.953125 -2.390625 L 0.953125 -6.875 L 2.828125 -6.875 L 2.828125 -2.859375 C 2.828125 -2.359375 2.910156 -1.984375 3.078125 -1.734375 C 3.253906 -1.492188 3.535156 -1.375 3.921875 -1.375 C 4.453125 -1.375 4.832031 -1.546875 5.0625 -1.890625 C 5.300781 -2.242188 5.421875 -2.828125 5.421875 -3.640625 L 5.421875 -6.875 L 7.296875 -6.875 L 7.296875 0 Z M 5.859375 0 "/></g></g><g transform="translate(104.071824, 41.069988)"><g><path d="M 4.828125 -7 C 5.078125 -7 5.285156 -6.984375 5.453125 -6.953125 L 5.3125 -5.1875 C 5.15625 -5.226562 4.972656 -5.25 4.765625 -5.25 C 4.160156 -5.25 3.691406 -5.09375 3.359375 -4.78125 C 3.023438 -4.476562 2.859375 -4.050781 2.859375 -3.5 L 2.859375 0 L 0.984375 0 L 0.984375 -6.875 L 2.40625 -6.875 L 2.6875 -5.71875 L 2.765625 -5.71875 C 2.984375 -6.101562 3.273438 -6.410156 3.640625 -6.640625 C 4.003906 -6.878906 4.398438 -7 4.828125 -7 Z M 4.828125 -7 "/></g></g><g transform="translate(109.792976, 41.069988)"><g><path d="M 2.484375 -3.453125 C 2.484375 -2.765625 2.59375 -2.25 2.8125 -1.90625 C 3.039062 -1.5625 3.40625 -1.390625 3.90625 -1.390625 C 4.40625 -1.390625 4.765625 -1.5625 4.984375 -1.90625 C 5.203125 -2.25 5.3125 -2.765625 5.3125 -3.453125 C 5.3125 -4.128906 5.203125 -4.632812 4.984375 -4.96875 C 4.765625 -5.3125 4.398438 -5.484375 3.890625 -5.484375 C 3.390625 -5.484375 3.03125 -5.316406 2.8125 -4.984375 C 2.59375 -4.648438 2.484375 -4.140625 2.484375 -3.453125 Z M 7.234375 -3.453125 C 7.234375 -2.328125 6.9375 -1.445312 6.34375 -0.8125 C 5.75 -0.1875 4.925781 0.125 3.875 0.125 C 3.21875 0.125 2.632812 -0.0195312 2.125 -0.3125 C 1.625 -0.601562 1.238281 -1.019531 0.96875 -1.5625 C 0.695312 -2.101562 0.5625 -2.734375 0.5625 -3.453125 C 0.5625 -4.578125 0.851562 -5.445312 1.4375 -6.0625 C 2.03125 -6.6875 2.859375 -7 3.921875 -7 C 4.578125 -7 5.15625 -6.851562 5.65625 -6.5625 C 6.164062 -6.28125 6.554688 -5.867188 6.828125 -5.328125 C 7.097656 -4.796875 7.234375 -4.171875 7.234375 -3.453125 Z M 7.234375 -3.453125 "/></g></g><g transform="translate(117.593429, 41.069988)"><g/></g><g transform="translate(120.866175, 41.069988)"><g><path d="M 0 -6.875 L 2.046875 -6.875 L 3.34375 -3 C 3.457031 -2.664062 3.535156 -2.269531 3.578125 -1.8125 L 3.609375 -1.8125 C 3.660156 -2.238281 3.75 -2.632812 3.875 -3 L 5.15625 -6.875 L 7.15625 -6.875 L 4.25 0.875 C 3.988281 1.59375 3.609375 2.128906 3.109375 2.484375 C 2.617188 2.847656 2.046875 3.03125 1.390625 3.03125 C 1.054688 3.03125 0.738281 2.992188 0.4375 2.921875 L 0.4375 1.4375 C 0.65625 1.488281 0.898438 1.515625 1.171875 1.515625 C 1.503906 1.515625 1.789062 1.410156 2.03125 1.203125 C 2.28125 1.003906 2.476562 0.695312 2.625 0.28125 L 2.734375 -0.046875 Z M 0 -6.875 "/></g></g><g transform="translate(128.032995, 41.069988)"><g/></g><g transform="translate(131.30574, 41.069988)"><g><path d="M 6.640625 0 L 5.984375 -2.140625 L 2.703125 -2.140625 L 2.046875 0 L 0 0 L 3.171875 -9.03125 L 5.5 -9.03125 L 8.6875 0 Z M 5.53125 -3.734375 C 4.925781 -5.671875 4.582031 -6.765625 4.5 -7.015625 C 4.425781 -7.273438 4.375 -7.476562 4.34375 -7.625 C 4.207031 -7.101562 3.820312 -5.804688 3.1875 -3.734375 Z M 5.53125 -3.734375 "/></g></g><g transform="translate(139.998201, 41.069988)"><g><path d="M 3.15625 0.125 C 2.351562 0.125 1.71875 -0.1875 1.25 -0.8125 C 0.789062 -1.445312 0.5625 -2.316406 0.5625 -3.421875 C 0.5625 -4.546875 0.796875 -5.421875 1.265625 -6.046875 C 1.734375 -6.679688 2.378906 -7 3.203125 -7 C 4.066406 -7 4.726562 -6.664062 5.1875 -6 L 5.25 -6 C 5.15625 -6.507812 5.109375 -6.960938 5.109375 -7.359375 L 5.109375 -9.5625 L 6.984375 -9.5625 L 6.984375 0 L 5.546875 0 L 5.1875 -0.890625 L 5.109375 -0.890625 C 4.679688 -0.210938 4.03125 0.125 3.15625 0.125 Z M 3.8125 -1.375 C 4.289062 -1.375 4.640625 -1.507812 4.859375 -1.78125 C 5.085938 -2.0625 5.210938 -2.535156 5.234375 -3.203125 L 5.234375 -3.40625 C 5.234375 -4.144531 5.117188 -4.675781 4.890625 -5 C 4.671875 -5.320312 4.300781 -5.484375 3.78125 -5.484375 C 3.363281 -5.484375 3.039062 -5.304688 2.8125 -4.953125 C 2.582031 -4.597656 2.46875 -4.082031 2.46875 -3.40625 C 2.46875 -2.726562 2.582031 -2.21875 2.8125 -1.875 C 3.050781 -1.539062 3.382812 -1.375 3.8125 -1.375 Z M 3.8125 -1.375 "/></g></g><g transform="translate(147.970903, 41.069988)"><g><path d="M 7.140625 0 L 5.265625 0 L 5.265625 -4.015625 C 5.265625 -4.515625 5.179688 -4.882812 5.015625 -5.125 C 4.847656 -5.375 4.585938 -5.5 4.234375 -5.5 C 3.753906 -5.5 3.40625 -5.320312 3.1875 -4.96875 C 2.96875 -4.625 2.859375 -4.046875 2.859375 -3.234375 L 2.859375 0 L 0.984375 0 L 0.984375 -6.875 L 2.421875 -6.875 L 2.671875 -6 L 2.765625 -6 C 2.953125 -6.3125 3.21875 -6.554688 3.5625 -6.734375 C 3.914062 -6.910156 4.316406 -7 4.765625 -7 C 5.796875 -7 6.492188 -6.664062 6.859375 -6 L 7.03125 -6 C 7.21875 -6.3125 7.488281 -6.554688 7.84375 -6.734375 C 8.195312 -6.910156 8.601562 -7 9.0625 -7 C 9.832031 -7 10.414062 -6.800781 10.8125 -6.40625 C 11.21875 -6.007812 11.421875 -5.367188 11.421875 -4.484375 L 11.421875 0 L 9.546875 0 L 9.546875 -4.015625 C 9.546875 -4.515625 9.460938 -4.882812 9.296875 -5.125 C 9.128906 -5.375 8.867188 -5.5 8.515625 -5.5 C 8.054688 -5.5 7.710938 -5.332031 7.484375 -5 C 7.253906 -4.675781 7.140625 -4.160156 7.140625 -3.453125 Z M 7.140625 0 "/></g></g><g transform="translate(160.342126, 41.069988)"><g><path d="M 0.90625 -8.65625 C 0.90625 -9.257812 1.242188 -9.5625 1.921875 -9.5625 C 2.609375 -9.5625 2.953125 -9.257812 2.953125 -8.65625 C 2.953125 -8.363281 2.863281 -8.132812 2.6875 -7.96875 C 2.519531 -7.8125 2.265625 -7.734375 1.921875 -7.734375 C 1.242188 -7.734375 0.90625 -8.039062 0.90625 -8.65625 Z M 2.859375 0 L 0.984375 0 L 0.984375 -6.875 L 2.859375 -6.875 Z M 2.859375 0 "/></g></g><g transform="translate(164.186987, 41.069988)"><g><path d="M 7.328125 0 L 5.453125 0 L 5.453125 -4.015625 C 5.453125 -4.515625 5.363281 -4.882812 5.1875 -5.125 C 5.007812 -5.375 4.726562 -5.5 4.34375 -5.5 C 3.820312 -5.5 3.441406 -5.320312 3.203125 -4.96875 C 2.972656 -4.625 2.859375 -4.046875 2.859375 -3.234375 L 2.859375 0 L 0.984375 0 L 0.984375 -6.875 L 2.421875 -6.875 L 2.671875 -6 L 2.765625 -6 C 2.984375 -6.332031 3.273438 -6.582031 3.640625 -6.75 C 4.003906 -6.914062 4.421875 -7 4.890625 -7 C 5.691406 -7 6.296875 -6.78125 6.703125 -6.34375 C 7.117188 -5.914062 7.328125 -5.296875 7.328125 -4.484375 Z M 7.328125 0 "/></g></g><g transform="translate(172.467278, 41.069988)"><g><path d="M 0.90625 -8.65625 C 0.90625 -9.257812 1.242188 -9.5625 1.921875 -9.5625 C 2.609375 -9.5625 2.953125 -9.257812 2.953125 -8.65625 C 2.953125 -8.363281 2.863281 -8.132812 2.6875 -7.96875 C 2.519531 -7.8125 2.265625 -7.734375 1.921875 -7.734375 C 1.242188 -7.734375 0.90625 -8.039062 0.90625 -8.65625 Z M 2.859375 0 L 0.984375 0 L 0.984375 -6.875 L 2.859375 -6.875 Z M 2.859375 0 "/></g></g><g transform="translate(176.312139, 41.069988)"><g><path d="M 5.78125 -2.046875 C 5.78125 -1.335938 5.535156 -0.796875 5.046875 -0.421875 C 4.554688 -0.0546875 3.820312 0.125 2.84375 0.125 C 2.34375 0.125 1.914062 0.0859375 1.5625 0.015625 C 1.21875 -0.046875 0.890625 -0.144531 0.578125 -0.28125 L 0.578125 -1.828125 C 0.921875 -1.660156 1.3125 -1.519531 1.75 -1.40625 C 2.1875 -1.300781 2.570312 -1.25 2.90625 -1.25 C 3.582031 -1.25 3.921875 -1.445312 3.921875 -1.84375 C 3.921875 -1.988281 3.875 -2.109375 3.78125 -2.203125 C 3.695312 -2.296875 3.546875 -2.398438 3.328125 -2.515625 C 3.109375 -2.628906 2.8125 -2.765625 2.4375 -2.921875 C 1.90625 -3.140625 1.515625 -3.34375 1.265625 -3.53125 C 1.023438 -3.71875 0.847656 -3.929688 0.734375 -4.171875 C 0.617188 -4.421875 0.5625 -4.722656 0.5625 -5.078125 C 0.5625 -5.691406 0.796875 -6.164062 1.265625 -6.5 C 1.742188 -6.832031 2.421875 -7 3.296875 -7 C 4.117188 -7 4.921875 -6.820312 5.703125 -6.46875 L 5.140625 -5.109375 C 4.796875 -5.253906 4.472656 -5.375 4.171875 -5.46875 C 3.867188 -5.5625 3.566406 -5.609375 3.265625 -5.609375 C 2.703125 -5.609375 2.421875 -5.460938 2.421875 -5.171875 C 2.421875 -4.992188 2.507812 -4.84375 2.6875 -4.71875 C 2.875 -4.601562 3.269531 -4.425781 3.875 -4.1875 C 4.40625 -3.96875 4.796875 -3.765625 5.046875 -3.578125 C 5.296875 -3.390625 5.476562 -3.171875 5.59375 -2.921875 C 5.71875 -2.671875 5.78125 -2.378906 5.78125 -2.046875 Z M 5.78125 -2.046875 "/></g></g><g transform="translate(182.574648, 41.069988)"><g><path d="M 3.875 -1.375 C 4.207031 -1.375 4.601562 -1.445312 5.0625 -1.59375 L 5.0625 -0.1875 C 4.59375 0.0195312 4.019531 0.125 3.34375 0.125 C 2.59375 0.125 2.046875 -0.0625 1.703125 -0.4375 C 1.359375 -0.820312 1.1875 -1.394531 1.1875 -2.15625 L 1.1875 -5.46875 L 0.28125 -5.46875 L 0.28125 -6.265625 L 1.328125 -6.890625 L 1.859375 -8.34375 L 3.0625 -8.34375 L 3.0625 -6.875 L 4.984375 -6.875 L 4.984375 -5.46875 L 3.0625 -5.46875 L 3.0625 -2.15625 C 3.0625 -1.882812 3.132812 -1.6875 3.28125 -1.5625 C 3.4375 -1.4375 3.632812 -1.375 3.875 -1.375 Z M 3.875 -1.375 "/></g></g><g transform="translate(188.043577, 41.069988)"><g><path d="M 4.828125 -7 C 5.078125 -7 5.285156 -6.984375 5.453125 -6.953125 L 5.3125 -5.1875 C 5.15625 -5.226562 4.972656 -5.25 4.765625 -5.25 C 4.160156 -5.25 3.691406 -5.09375 3.359375 -4.78125 C 3.023438 -4.476562 2.859375 -4.050781 2.859375 -3.5 L 2.859375 0 L 0.984375 0 L 0.984375 -6.875 L 2.40625 -6.875 L 2.6875 -5.71875 L 2.765625 -5.71875 C 2.984375 -6.101562 3.273438 -6.410156 3.640625 -6.640625 C 4.003906 -6.878906 4.398438 -7 4.828125 -7 Z M 4.828125 -7 "/></g></g><g transform="translate(193.76473, 41.069988)"><g><path d="M 5.34375 0 L 4.984375 -0.9375 L 4.9375 -0.9375 C 4.625 -0.539062 4.300781 -0.265625 3.96875 -0.109375 C 3.632812 0.046875 3.195312 0.125 2.65625 0.125 C 2 0.125 1.476562 -0.0625 1.09375 -0.4375 C 0.71875 -0.820312 0.53125 -1.359375 0.53125 -2.046875 C 0.53125 -2.785156 0.785156 -3.328125 1.296875 -3.671875 C 1.804688 -4.015625 2.578125 -4.207031 3.609375 -4.25 L 4.796875 -4.28125 L 4.796875 -4.578125 C 4.796875 -5.273438 4.4375 -5.625 3.71875 -5.625 C 3.175781 -5.625 2.535156 -5.457031 1.796875 -5.125 L 1.171875 -6.390625 C 1.960938 -6.804688 2.835938 -7.015625 3.796875 -7.015625 C 4.722656 -7.015625 5.429688 -6.8125 5.921875 -6.40625 C 6.410156 -6.007812 6.65625 -5.398438 6.65625 -4.578125 L 6.65625 0 Z M 4.796875 -3.1875 L 4.078125 -3.15625 C 3.523438 -3.144531 3.113281 -3.046875 2.84375 -2.859375 C 2.582031 -2.679688 2.453125 -2.410156 2.453125 -2.046875 C 2.453125 -1.515625 2.753906 -1.25 3.359375 -1.25 C 3.796875 -1.25 4.144531 -1.375 4.40625 -1.625 C 4.664062 -1.875 4.796875 -2.207031 4.796875 -2.625 Z M 4.796875 -3.1875 "/></g></g><g transform="translate(201.374477, 41.069988)"><g><path d="M 4.8125 -7 C 5.625 -7 6.257812 -6.679688 6.71875 -6.046875 C 7.175781 -5.421875 7.40625 -4.554688 7.40625 -3.453125 C 7.40625 -2.316406 7.164062 -1.4375 6.6875 -0.8125 C 6.21875 -0.1875 5.578125 0.125 4.765625 0.125 C 3.953125 0.125 3.316406 -0.164062 2.859375 -0.75 L 2.734375 -0.75 L 2.421875 0 L 0.984375 0 L 0.984375 -9.5625 L 2.859375 -9.5625 L 2.859375 -7.34375 C 2.859375 -7.0625 2.832031 -6.609375 2.78125 -5.984375 L 2.859375 -5.984375 C 3.296875 -6.660156 3.945312 -7 4.8125 -7 Z M 4.203125 -5.5 C 3.742188 -5.5 3.40625 -5.359375 3.1875 -5.078125 C 2.976562 -4.796875 2.867188 -4.328125 2.859375 -3.671875 L 2.859375 -3.46875 C 2.859375 -2.726562 2.96875 -2.195312 3.1875 -1.875 C 3.40625 -1.550781 3.753906 -1.390625 4.234375 -1.390625 C 4.617188 -1.390625 4.921875 -1.566406 5.140625 -1.921875 C 5.367188 -2.273438 5.484375 -2.789062 5.484375 -3.46875 C 5.484375 -4.144531 5.367188 -4.648438 5.140625 -4.984375 C 4.910156 -5.328125 4.597656 -5.5 4.203125 -5.5 Z M 4.203125 -5.5 "/></g></g><g transform="translate(209.34718, 41.069988)"><g><path d="M 2.859375 0 L 0.984375 0 L 0.984375 -9.5625 L 2.859375 -9.5625 Z M 2.859375 0 "/></g></g><g transform="translate(213.192041, 41.069988)"><g><path d="M 3.828125 -5.671875 C 3.429688 -5.671875 3.117188 -5.539062 2.890625 -5.28125 C 2.671875 -5.03125 2.546875 -4.675781 2.515625 -4.21875 L 5.140625 -4.21875 C 5.128906 -4.675781 5.003906 -5.03125 4.765625 -5.28125 C 4.535156 -5.539062 4.222656 -5.671875 3.828125 -5.671875 Z M 4.09375 0.125 C 2.988281 0.125 2.125 -0.175781 1.5 -0.78125 C 0.875 -1.394531 0.5625 -2.265625 0.5625 -3.390625 C 0.5625 -4.535156 0.847656 -5.421875 1.421875 -6.046875 C 2.003906 -6.679688 2.800781 -7 3.8125 -7 C 4.789062 -7 5.550781 -6.722656 6.09375 -6.171875 C 6.632812 -5.617188 6.90625 -4.851562 6.90625 -3.875 L 6.90625 -2.96875 L 2.46875 -2.96875 C 2.488281 -2.4375 2.644531 -2.019531 2.9375 -1.71875 C 3.226562 -1.414062 3.644531 -1.265625 4.1875 -1.265625 C 4.59375 -1.265625 4.976562 -1.304688 5.34375 -1.390625 C 5.71875 -1.484375 6.109375 -1.625 6.515625 -1.8125 L 6.515625 -0.359375 C 6.179688 -0.191406 5.828125 -0.0703125 5.453125 0 C 5.085938 0.0820312 4.632812 0.125 4.09375 0.125 Z M 4.09375 0.125 "/></g></g></g></svg>